<?xml version="1.0" encoding="UTF-8"?>
<!DOCTYPE svg PUBLIC "-//W3C//DTD SVG 1.1//EN" "http://www.w3.org/Graphics/SVG/1.1/DTD/svg11.dtd">
<svg xmlns="http://www.w3.org/2000/svg" version="1.1" width="500px" height="500px" style="shape-rendering:geometricPrecision; text-rendering:geometricPrecision; image-rendering:optimizeQuality; fill-rule:evenodd; clip-rule:evenodd" xmlns:xlink="http://www.w3.org/1999/xlink">
<g><path style="opacity:0.267" fill="#444444" d="M 146.5,130.5 C 146.167,130.5 145.833,130.5 145.5,130.5C 144.539,128.735 144.205,126.735 144.5,124.5C 142.5,124.5 140.5,124.5 138.5,124.5C 138.741,126.898 138.074,128.898 136.5,130.5C 136.062,130.565 135.728,130.399 135.5,130C 136.255,127.825 137.088,125.659 138,123.5C 144.064,121.514 146.897,123.847 146.5,130.5 Z"/></g>
<g><path style="opacity:0.998" fill="#ebebeb" d="M 145.5,130.5 C 145.338,132.527 145.505,134.527 146,136.5C 146.383,137.056 146.883,137.389 147.5,137.5C 147.427,139.027 148.094,140.027 149.5,140.5C 149.5,141.167 149.5,141.833 149.5,142.5C 149.896,145.721 151.229,148.388 153.5,150.5C 153.285,152.179 153.952,153.179 155.5,153.5C 155.229,155.38 155.896,156.713 157.5,157.5C 157.554,159.632 158.554,160.965 160.5,161.5C 160.5,161.833 160.5,162.167 160.5,162.5C 160.427,164.027 161.094,165.027 162.5,165.5C 163.338,165.842 163.672,166.508 163.5,167.5C 164.443,170.109 166.11,172.109 168.5,173.5C 168.738,175.404 169.738,176.738 171.5,177.5C 171.5,178.167 171.833,178.5 172.5,178.5C 173.073,181.407 174.739,183.407 177.5,184.5C 178.882,186.549 180.548,188.215 182.5,189.5C 183.099,191.934 184.599,193.601 187,194.5C 189.13,193.088 190.963,191.422 192.5,189.5C 195.327,188.892 197.993,187.892 200.5,186.5C 202.848,186.408 204.514,185.408 205.5,183.5C 207.179,183.715 208.179,183.048 208.5,181.5C 208.833,181.5 209.167,181.5 209.5,181.5C 212.166,181.067 214.832,180.567 217.5,180C 218.056,179.617 218.389,179.117 218.5,178.5C 219.167,178.5 219.833,178.5 220.5,178.5C 223.455,177.841 226.455,177.508 229.5,177.5C 232.385,177.357 234.718,176.357 236.5,174.5C 238.965,173.535 241.465,172.535 244,171.5C 245.03,171.164 245.53,170.497 245.5,169.5C 247.735,169.795 249.735,169.461 251.5,168.5C 259.973,168.745 267.973,170.745 275.5,174.5C 275.5,174.833 275.5,175.167 275.5,175.5C 276.148,177.086 276.648,178.753 277,180.5C 277.671,181.252 278.504,181.586 279.5,181.5C 280.141,182.482 280.807,183.482 281.5,184.5C 284.622,186.63 287.955,188.297 291.5,189.5C 293.951,192.277 296.951,194.277 300.5,195.5C 300.328,196.492 300.662,197.158 301.5,197.5C 303.443,199.165 305.443,200.832 307.5,202.5C 308.95,204.61 310.95,205.943 313.5,206.5C 314.167,206.5 314.5,206.833 314.5,207.5C 315.167,210.167 316.833,211.833 319.5,212.5C 320.6,213.605 321.267,214.938 321.5,216.5C 319.585,216.216 317.919,216.549 316.5,217.5C 313.396,214.899 310.396,212.066 307.5,209C 306.552,208.517 305.552,208.351 304.5,208.5C 304.5,208.167 304.5,207.833 304.5,207.5C 304.167,206.5 303.5,205.833 302.5,205.5C 302.167,205.5 301.833,205.5 301.5,205.5C 300.461,203.469 298.795,202.136 296.5,201.5C 296.027,200.094 295.027,199.427 293.5,199.5C 293.027,198.094 292.027,197.427 290.5,197.5C 290.5,197.167 290.5,196.833 290.5,196.5C 288.104,194.445 285.438,192.779 282.5,191.5C 282.167,191.5 281.833,191.5 281.5,191.5C 280.965,189.554 279.632,188.554 277.5,188.5C 277.167,188.5 276.833,188.5 276.5,188.5C 274.097,186.037 272.43,183.037 271.5,179.5C 268.106,177.803 264.773,176.136 261.5,174.5C 260.207,173.842 258.707,173.508 257,173.5C 255.014,173.569 253.514,174.235 252.5,175.5C 250.219,175.077 248.552,175.744 247.5,177.5C 246.5,177.5 245.5,177.5 244.5,177.5C 242.597,177.796 240.93,178.463 239.5,179.5C 236.99,179.054 234.99,179.72 233.5,181.5C 228.397,181.067 224.063,182.4 220.5,185.5C 219.5,185.5 218.5,185.5 217.5,185.5C 214.895,185.621 212.895,186.621 211.5,188.5C 210.833,188.5 210.167,188.5 209.5,188.5C 206.895,188.621 204.895,189.621 203.5,191.5C 203.167,191.5 202.833,191.5 202.5,191.5C 200.152,191.592 198.486,192.592 197.5,194.5C 197.158,195.338 196.492,195.672 195.5,195.5C 192.784,195.386 190.784,196.386 189.5,198.5C 188.833,198.5 188.5,198.833 188.5,199.5C 188.5,199.833 188.5,200.167 188.5,200.5C 185.058,200.945 182.391,202.612 180.5,205.5C 180.5,205.833 180.5,206.167 180.5,206.5C 179.167,206.5 177.833,206.5 176.5,206.5C 176.371,208.216 176.038,209.883 175.5,211.5C 175.5,212.167 175.167,212.5 174.5,212.5C 173.167,212.5 172.5,213.167 172.5,214.5C 169.066,215.977 167.066,218.643 166.5,222.5C 164.856,222.81 163.856,223.81 163.5,225.5C 163.5,225.833 163.5,226.167 163.5,226.5C 161.799,227.211 160.799,228.545 160.5,230.5C 160.5,230.833 160.5,231.167 160.5,231.5C 157.932,233.027 156.599,235.361 156.5,238.5C 156.737,239.791 156.404,240.791 155.5,241.5C 154.503,241.47 153.836,241.97 153.5,243C 152.782,245.769 151.782,248.436 150.5,251C 150.387,252.699 151.053,253.866 152.5,254.5C 155.507,257.48 159.174,259.147 163.5,259.5C 164.486,261.408 166.152,262.408 168.5,262.5C 168.833,262.5 169.167,262.5 169.5,262.5C 171.395,264.241 173.728,265.241 176.5,265.5C 177.167,265.5 177.833,265.5 178.5,265.5C 178.5,265.833 178.5,266.167 178.5,266.5C 175.417,265.934 172.417,265.934 169.5,266.5C 169.167,266.833 168.833,267.167 168.5,267.5C 170.544,268.065 172.21,269.065 173.5,270.5C 171.883,269.962 170.216,269.629 168.5,269.5C 168.167,269.5 167.833,269.5 167.5,269.5C 167.5,269.167 167.5,268.833 167.5,268.5C 166.791,267.596 165.791,267.263 164.5,267.5C 164.5,268.833 164.5,270.167 164.5,271.5C 163.662,271.158 163.328,270.492 163.5,269.5C 163.5,268.167 163.5,266.833 163.5,265.5C 161.194,265.007 158.861,264.674 156.5,264.5C 156.53,263.503 156.03,262.836 155,262.5C 143.847,258.932 138.347,262.932 138.5,274.5C 138.382,277.486 139.048,280.152 140.5,282.5C 140.833,282.5 141.167,282.5 141.5,282.5C 141.511,284.017 142.177,285.184 143.5,286C 146.004,286.698 148.337,287.531 150.5,288.5C 148.319,288.284 146.653,289.117 145.5,291C 146.416,291.278 147.082,291.778 147.5,292.5C 146.167,292.5 144.833,292.5 143.5,292.5C 142.713,290.896 141.38,290.229 139.5,290.5C 137.396,288.628 136.063,286.295 135.5,283.5C 134.545,277.591 134.211,271.591 134.5,265.5C 134.522,258.809 137.855,254.809 144.5,253.5C 144.366,251.708 144.699,250.042 145.5,248.5C 145.5,247.833 145.5,247.167 145.5,246.5C 147.213,245.365 147.88,243.698 147.5,241.5C 149.539,240.089 150.539,238.089 150.5,235.5C 152.25,234.341 153.25,232.674 153.5,230.5C 153.5,230.167 153.5,229.833 153.5,229.5C 155.729,227.901 156.062,225.901 154.5,223.5C 153.783,220.763 152.45,218.43 150.5,216.5C 149.974,214.77 148.974,213.436 147.5,212.5C 147.325,208.243 145.659,204.91 142.5,202.5C 142.5,201.5 142.5,200.5 142.5,199.5C 142.241,196.728 141.241,194.395 139.5,192.5C 139.5,191.833 139.5,191.167 139.5,190.5C 139.413,186.668 138.413,183.335 136.5,180.5C 136.5,179.167 136.5,177.833 136.5,176.5C 135.167,162.5 135.167,148.5 136.5,134.5C 136.5,133.167 136.5,131.833 136.5,130.5C 138.074,128.898 138.741,126.898 138.5,124.5C 140.5,124.5 142.5,124.5 144.5,124.5C 144.205,126.735 144.539,128.735 145.5,130.5 Z M 145.5,149.5 C 145.5,149.833 145.5,150.167 145.5,150.5C 145.66,152.153 146.326,153.486 147.5,154.5C 148.37,157.378 149.703,160.045 151.5,162.5C 151.957,163.298 152.624,163.631 153.5,163.5C 153.5,163.833 153.5,164.167 153.5,164.5C 154.786,167.117 156.453,169.45 158.5,171.5C 158.738,173.404 159.738,174.738 161.5,175.5C 162.412,177.595 163.579,179.595 165,181.5C 165.671,182.252 166.504,182.586 167.5,182.5C 167.5,182.833 167.5,183.167 167.5,183.5C 169.453,187.12 172.119,190.12 175.5,192.5C 176.13,194.75 177.13,196.75 178.5,198.5C 177.449,199.222 176.782,200.222 176.5,201.5C 172.5,203.5 169.5,206.5 167.5,210.5C 165.856,210.81 164.856,211.81 164.5,213.5C 163.127,213.657 161.793,213.49 160.5,213C 157.282,208.618 153.615,204.784 149.5,201.5C 149.611,200.883 149.944,200.383 150.5,200C 149.384,197.261 148.051,194.761 146.5,192.5C 146.5,192.167 146.5,191.833 146.5,191.5C 145.081,185.394 143.747,179.394 142.5,173.5C 141.218,164.134 141.385,154.801 143,145.5C 143.122,147.437 143.955,148.77 145.5,149.5 Z"/></g>
<g><path style="opacity:0.588" fill="#919191" d="M 145.5,130.5 C 145.833,130.5 146.167,130.5 146.5,130.5C 146.5,131.833 146.5,133.167 146.5,134.5C 147.11,135.391 147.443,136.391 147.5,137.5C 146.883,137.389 146.383,137.056 146,136.5C 145.505,134.527 145.338,132.527 145.5,130.5 Z"/></g>
<g><path style="opacity:0.286" fill="#323232" d="M 146.5,134.5 C 148.379,135.895 149.379,137.895 149.5,140.5C 148.094,140.027 147.427,139.027 147.5,137.5C 147.443,136.391 147.11,135.391 146.5,134.5 Z"/></g>
<g><path style="opacity:0.953" fill="#adadad" d="M 142.5,139.5 C 145.393,142.506 146.727,146.172 146.5,150.5C 146.167,150.5 145.833,150.5 145.5,150.5C 145.5,150.167 145.5,149.833 145.5,149.5C 144.488,146.151 143.488,142.817 142.5,139.5 Z"/></g>
<g><path style="opacity:0.451" fill="#454545" d="M 149.5,142.5 C 151.396,144.837 152.73,147.504 153.5,150.5C 151.229,148.388 149.896,145.721 149.5,142.5 Z"/></g>
<g><path style="opacity:0.153" fill="#292929" d="M 145.5,150.5 C 145.833,150.5 146.167,150.5 146.5,150.5C 147.434,151.568 147.768,152.901 147.5,154.5C 146.326,153.486 145.66,152.153 145.5,150.5 Z"/></g>
<g><path style="opacity:0.014" fill="#262626" d="M 153.5,150.5 C 154.906,150.973 155.573,151.973 155.5,153.5C 153.952,153.179 153.285,152.179 153.5,150.5 Z"/></g>
<g><path style="opacity:0.425" fill="#444444" d="M 136.5,134.5 C 135.167,148.5 135.167,162.5 136.5,176.5C 135.778,176.082 135.278,175.416 135,174.5C 133,161.833 133,149.167 135,136.5C 135.278,135.584 135.778,134.918 136.5,134.5 Z"/></g>
<g><path style="opacity:0.085" fill="#222222" d="M 142.5,139.5 C 143.488,142.817 144.488,146.151 145.5,149.5C 143.955,148.77 143.122,147.437 143,145.5C 141.385,154.801 141.218,164.134 142.5,173.5C 142.167,173.5 141.833,173.5 141.5,173.5C 141.001,167.517 140.667,161.517 140.5,155.5C 140.276,149.902 140.943,144.569 142.5,139.5 Z"/></g>
<g><path style="opacity:0.157" fill="#2e2e2e" d="M 155.5,153.5 C 156.674,154.514 157.34,155.847 157.5,157.5C 155.896,156.713 155.229,155.38 155.5,153.5 Z"/></g>
<g><path style="opacity:0.373" fill="#3c3c3c" d="M 147.5,154.5 C 150.714,156.567 152.714,159.567 153.5,163.5C 152.624,163.631 151.957,163.298 151.5,162.5C 149.703,160.045 148.37,157.378 147.5,154.5 Z"/></g>
<g><path style="opacity:0.137" fill="#2a2a2a" d="M 157.5,157.5 C 158.974,158.436 159.974,159.77 160.5,161.5C 158.554,160.965 157.554,159.632 157.5,157.5 Z"/></g>
<g><path style="opacity:0.267" fill="#2f2f2f" d="M 160.5,162.5 C 161.906,162.973 162.573,163.973 162.5,165.5C 161.094,165.027 160.427,164.027 160.5,162.5 Z"/></g>
<g><path style="opacity:0.204" fill="#434343" d="M 153.5,164.5 C 156.264,165.948 157.931,168.281 158.5,171.5C 156.453,169.45 154.786,167.117 153.5,164.5 Z"/></g>
<g><path style="opacity:0.059" fill="#303030" d="M 163.5,167.5 C 165.86,168.865 167.527,170.865 168.5,173.5C 166.11,172.109 164.443,170.109 163.5,167.5 Z"/></g>
<g><path style="opacity:0.251" fill="#3a3a3a" d="M 251.5,167.5 C 251.5,167.833 251.5,168.167 251.5,168.5C 249.735,169.461 247.735,169.795 245.5,169.5C 247.214,168.262 249.214,167.595 251.5,167.5 Z"/></g>
<g><path style="opacity:0.227" fill="#2a2a2a" d="M 391.5,170.5 C 389.218,169.61 386.885,169.444 384.5,170C 383.295,171.376 381.962,172.542 380.5,173.5C 382.21,168.817 385.543,167.317 390.5,169C 391.056,169.383 391.389,169.883 391.5,170.5 Z"/></g>
<g><path style="opacity:0.227" fill="#535353" d="M 251.5,168.5 C 251.5,168.167 251.5,167.833 251.5,167.5C 258.489,166.907 265.156,168.074 271.5,171C 273.324,171.66 274.657,172.827 275.5,174.5C 267.973,170.745 259.973,168.745 251.5,168.5 Z"/></g>
<g><path style="opacity:0.435" fill="#505050" d="M 158.5,171.5 C 160.446,172.035 161.446,173.368 161.5,175.5C 159.738,174.738 158.738,173.404 158.5,171.5 Z"/></g>
<g><path style="opacity:0.22" fill="#333333" d="M 245.5,169.5 C 245.53,170.497 245.03,171.164 244,171.5C 241.465,172.535 238.965,173.535 236.5,174.5C 234.621,175.341 232.621,175.675 230.5,175.5C 235.45,173.596 240.45,171.596 245.5,169.5 Z"/></g>
<g><path style="opacity:0.106" fill="#252525" d="M 391.5,170.5 C 392.906,170.973 393.573,171.973 393.5,173.5C 392.094,173.027 391.427,172.027 391.5,170.5 Z"/></g>
<g><path style="opacity:0.578" fill="#9c9c9c" d="M 261.5,174.5 C 260.833,174.5 260.167,174.5 259.5,174.5C 258.833,174.5 258.167,174.5 257.5,174.5C 255.708,174.366 254.042,174.699 252.5,175.5C 253.514,174.235 255.014,173.569 257,173.5C 258.707,173.508 260.207,173.842 261.5,174.5 Z"/></g>
<g><path style="opacity:0.255" fill="#454545" d="M 141.5,173.5 C 141.833,173.5 142.167,173.5 142.5,173.5C 143.747,179.394 145.081,185.394 146.5,191.5C 143.611,185.955 141.944,179.955 141.5,173.5 Z"/></g>
<g><path style="opacity:0.204" fill="#353535" d="M 168.5,173.5 C 170.262,174.262 171.262,175.596 171.5,177.5C 169.738,176.738 168.738,175.404 168.5,173.5 Z"/></g>
<g><path style="opacity:0.275" fill="#414141" d="M 257.5,174.5 C 254.417,175.993 251.083,176.993 247.5,177.5C 248.552,175.744 250.219,175.077 252.5,175.5C 254.042,174.699 255.708,174.366 257.5,174.5 Z"/></g>
<g><path style="opacity:0.306" fill="#4c4c4c" d="M 161.5,175.5 C 164.167,177.173 166.167,179.507 167.5,182.5C 166.504,182.586 165.671,182.252 165,181.5C 163.579,179.595 162.412,177.595 161.5,175.5 Z"/></g>
<g><path style="opacity:0.355" fill="#444444" d="M 230.5,175.5 C 230.167,176.167 229.833,176.833 229.5,177.5C 226.455,177.508 223.455,177.841 220.5,178.5C 223.381,176.32 226.714,175.32 230.5,175.5 Z"/></g>
<g><path style="opacity:0.745" fill="#a6a6a6" d="M 236.5,174.5 C 234.718,176.357 232.385,177.357 229.5,177.5C 229.833,176.833 230.167,176.167 230.5,175.5C 232.621,175.675 234.621,175.341 236.5,174.5 Z"/></g>
<g><path style="opacity:0.31" fill="#424242" d="M 259.5,174.5 C 260.167,174.5 260.833,174.5 261.5,174.5C 264.773,176.136 268.106,177.803 271.5,179.5C 272.43,183.037 274.097,186.037 276.5,188.5C 272.792,187.068 270.459,184.402 269.5,180.5C 266.08,178.465 262.747,176.465 259.5,174.5 Z"/></g>
<g><path style="opacity:0.365" fill="#484848" d="M 244.5,177.5 C 243.232,179.047 241.565,180.047 239.5,180.5C 239.5,180.167 239.5,179.833 239.5,179.5C 240.93,178.463 242.597,177.796 244.5,177.5 Z"/></g>
<g><path style="opacity:0.296" fill="#3d3d3d" d="M 218.5,178.5 C 218.389,179.117 218.056,179.617 217.5,180C 214.832,180.567 212.166,181.067 209.5,181.5C 212.12,179.895 214.953,178.562 218,177.5C 218.399,177.728 218.565,178.062 218.5,178.5 Z"/></g>
<g><path style="opacity:0.686" fill="#a6a6a6" d="M 239.5,179.5 C 239.5,179.833 239.5,180.167 239.5,180.5C 239.167,180.5 238.833,180.5 238.5,180.5C 236.784,180.629 235.117,180.962 233.5,181.5C 234.99,179.72 236.99,179.054 239.5,179.5 Z"/></g>
<g><path style="opacity:0.094" fill="#2a2a2a" d="M 275.5,175.5 C 277.366,177.001 278.699,179.001 279.5,181.5C 278.504,181.586 277.671,181.252 277,180.5C 276.648,178.753 276.148,177.086 275.5,175.5 Z"/></g>
<g><path style="opacity:0.251" fill="#424242" d="M 380.5,173.5 C 379.167,176.493 377.167,178.827 374.5,180.5C 375.81,177.527 377.81,175.193 380.5,173.5 Z"/></g>
<g><path style="opacity:0.043" fill="#353535" d="M 393.5,173.5 C 394.139,174.097 394.472,174.93 394.5,176C 393.894,179.199 393.227,182.366 392.5,185.5C 392.167,185.5 391.833,185.5 391.5,185.5C 391.534,181.37 392.201,177.37 393.5,173.5 Z"/></g>
<g><path style="opacity:0.435" fill="#4b4b4b" d="M 238.5,180.5 C 232.621,182.165 226.621,183.831 220.5,185.5C 224.063,182.4 228.397,181.067 233.5,181.5C 235.117,180.962 236.784,180.629 238.5,180.5 Z"/></g>
<g><path style="opacity:0.314" fill="#515151" d="M 172.5,178.5 C 174.567,180.227 176.233,182.227 177.5,184.5C 174.739,183.407 173.073,181.407 172.5,178.5 Z"/></g>
<g><path style="opacity:0.518" fill="#666666" d="M 374.5,181.5 C 374.027,182.906 373.027,183.573 371.5,183.5C 371.973,182.094 372.973,181.427 374.5,181.5 Z"/></g>
<g><path style="opacity:0.014" fill="#212121" d="M 208.5,181.5 C 208.179,183.048 207.179,183.715 205.5,183.5C 204.292,184.234 202.959,184.567 201.5,184.5C 203.509,182.935 205.843,181.935 208.5,181.5 Z"/></g>
<g><path style="opacity:0.827" fill="#a3a3a3" d="M 205.5,183.5 C 204.514,185.408 202.848,186.408 200.5,186.5C 200.833,185.833 201.167,185.167 201.5,184.5C 202.959,184.567 204.292,184.234 205.5,183.5 Z"/></g>
<g><path style="opacity:0.275" fill="#3c3c3c" d="M 136.5,180.5 C 138.413,183.335 139.413,186.668 139.5,190.5C 137.32,187.619 136.32,184.286 136.5,180.5 Z"/></g>
<g><path style="opacity:0.537" fill="#606060" d="M 371.5,183.5 C 371.5,185.5 370.5,186.5 368.5,186.5C 369.167,185.167 370.167,184.167 371.5,183.5 Z"/></g>
<g><path style="opacity:0.161" fill="#1d1d1d" d="M 177.5,184.5 C 180.167,185.167 181.833,186.833 182.5,189.5C 180.548,188.215 178.882,186.549 177.5,184.5 Z"/></g>
<g><path style="opacity:0.076" fill="#303030" d="M 217.5,185.5 C 215.887,187.088 213.887,188.088 211.5,188.5C 212.895,186.621 214.895,185.621 217.5,185.5 Z"/></g>
<g><path style="opacity:0.286" fill="#3b3b3b" d="M 167.5,183.5 C 171.311,185.436 173.978,188.436 175.5,192.5C 172.119,190.12 169.453,187.12 167.5,183.5 Z"/></g>
<g><path style="opacity:0.533" fill="#454545" d="M 201.5,184.5 C 201.167,185.167 200.833,185.833 200.5,186.5C 197.993,187.892 195.327,188.892 192.5,189.5C 195.008,187.076 198.008,185.41 201.5,184.5 Z"/></g>
<g><path style="opacity:0.51" fill="#4c4c4c" d="M 279.5,181.5 C 283.852,183.673 287.852,186.34 291.5,189.5C 287.955,188.297 284.622,186.63 281.5,184.5C 280.807,183.482 280.141,182.482 279.5,181.5 Z"/></g>
<g><path style="opacity:0.169" fill="#353535" d="M 368.5,186.5 C 367.25,188.154 365.916,189.821 364.5,191.5C 363.391,191.557 362.391,191.89 361.5,192.5C 363.173,189.833 365.507,187.833 368.5,186.5 Z"/></g>
<g><path style="opacity:0.008" fill="#272727" d="M 209.5,188.5 C 207.967,190.245 205.967,191.245 203.5,191.5C 204.895,189.621 206.895,188.621 209.5,188.5 Z"/></g>
<g><path style="opacity:0.22" fill="#363636" d="M 277.5,188.5 C 279.632,188.554 280.965,189.554 281.5,191.5C 279.77,190.974 278.436,189.974 277.5,188.5 Z"/></g>
<g><path style="opacity:0.031" fill="#1e1e1e" d="M 391.5,185.5 C 391.833,185.5 392.167,185.5 392.5,185.5C 392.125,187.698 391.458,189.698 390.5,191.5C 390.205,189.265 390.539,187.265 391.5,185.5 Z"/></g>
<g><path style="opacity:0.106" fill="#3d3d3d" d="M 182.5,189.5 C 183.815,190.476 185.148,191.476 186.5,192.5C 188.243,190.962 190.243,189.962 192.5,189.5C 190.963,191.422 189.13,193.088 187,194.5C 184.599,193.601 183.099,191.934 182.5,189.5 Z"/></g>
<g><path style="opacity:0.408" fill="#444444" d="M 202.5,191.5 C 201.341,193.25 199.674,194.25 197.5,194.5C 198.486,192.592 200.152,191.592 202.5,191.5 Z"/></g>
<g><path style="opacity:0.102" fill="#292929" d="M 291.5,189.5 C 295.025,190.759 298.025,192.759 300.5,195.5C 296.951,194.277 293.951,192.277 291.5,189.5 Z"/></g>
<g><path style="opacity:0.353" fill="#3c3c3c" d="M 390.5,191.5 C 390.655,194.716 389.655,197.383 387.5,199.5C 387.557,198.391 387.89,197.391 388.5,196.5C 388.077,194.219 388.744,192.552 390.5,191.5 Z"/></g>
<g><path style="opacity:0.004" fill="#202020" d="M 175.5,192.5 C 177.446,193.035 178.446,194.368 178.5,196.5C 178.5,197.167 178.5,197.833 178.5,198.5C 177.13,196.75 176.13,194.75 175.5,192.5 Z"/></g>
<g><path style="opacity:0.047" fill="#363636" d="M 282.5,191.5 C 285.438,192.779 288.104,194.445 290.5,196.5C 287.058,196.055 284.391,194.388 282.5,191.5 Z"/></g>
<g><path style="opacity:0.184" fill="#2c2c2c" d="M 139.5,192.5 C 141.241,194.395 142.241,196.728 142.5,199.5C 140.179,197.91 139.179,195.577 139.5,192.5 Z"/></g>
<g><path style="opacity:0.294" fill="#484848" d="M 146.5,192.5 C 148.051,194.761 149.384,197.261 150.5,200C 149.944,200.383 149.611,200.883 149.5,201.5C 148.054,198.746 147.054,195.746 146.5,192.5 Z"/></g>
<g><path style="opacity:0.8" fill="#9a9a9a" d="M 195.5,195.5 C 194.71,196.401 193.71,197.068 192.5,197.5C 191.391,197.557 190.391,197.89 189.5,198.5C 190.784,196.386 192.784,195.386 195.5,195.5 Z"/></g>
<g><path style="opacity:0.282" fill="#2b2b2b" d="M 300.5,195.5 C 302.19,195.856 303.19,196.856 303.5,198.5C 302.833,198.167 302.167,197.833 301.5,197.5C 300.662,197.158 300.328,196.492 300.5,195.5 Z"/></g>
<g><path style="opacity:0.243" fill="#5b5b5b" d="M 364.5,191.5 C 360.416,195.055 356.082,198.389 351.5,201.5C 349.978,202.562 348.312,203.229 346.5,203.5C 351.202,199.471 356.202,195.804 361.5,192.5C 362.391,191.89 363.391,191.557 364.5,191.5 Z"/></g>
<g><path style="opacity:0.671" fill="#808080" d="M 178.5,196.5 C 179.867,198.79 179.2,200.456 176.5,201.5C 176.782,200.222 177.449,199.222 178.5,198.5C 178.5,197.833 178.5,197.167 178.5,196.5 Z"/></g>
<g><path style="opacity:0.235" fill="#232323" d="M 290.5,197.5 C 292.027,197.427 293.027,198.094 293.5,199.5C 291.973,199.573 290.973,198.906 290.5,197.5 Z"/></g>
<g><path style="opacity:0.749" fill="#9e9e9e" d="M 388.5,196.5 C 387.89,197.391 387.557,198.391 387.5,199.5C 387.5,200.167 387.5,200.833 387.5,201.5C 386.833,201.833 386.167,202.167 385.5,202.5C 385.621,199.895 386.621,197.895 388.5,196.5 Z"/></g>
<g><path style="opacity:0.196" fill="#3d3d3d" d="M 192.5,197.5 C 191.713,199.104 190.38,199.771 188.5,199.5C 188.5,198.833 188.833,198.5 189.5,198.5C 190.391,197.89 191.391,197.557 192.5,197.5 Z"/></g>
<g><path style="opacity:0.816" fill="#8c8c8c" d="M 301.5,197.5 C 302.167,197.833 302.833,198.167 303.5,198.5C 305.027,198.427 306.027,199.094 306.5,200.5C 306.833,201.167 307.167,201.833 307.5,202.5C 305.443,200.832 303.443,199.165 301.5,197.5 Z"/></g>
<g><path style="opacity:0.169" fill="#2a2a2a" d="M 293.5,199.5 C 295.027,199.427 296.027,200.094 296.5,201.5C 294.973,201.573 293.973,200.906 293.5,199.5 Z"/></g>
<g><path style="opacity:0.043" fill="#2e2e2e" d="M 149.5,201.5 C 153.615,204.784 157.282,208.618 160.5,213C 161.793,213.49 163.127,213.657 164.5,213.5C 164.53,214.497 164.03,215.164 163,215.5C 157.692,211.691 153.192,207.024 149.5,201.5 Z"/></g>
<g><path style="opacity:0.055" fill="#313131" d="M 306.5,200.5 C 309.427,201.757 311.761,203.757 313.5,206.5C 310.95,205.943 308.95,204.61 307.5,202.5C 307.167,201.833 306.833,201.167 306.5,200.5 Z"/></g>
<g><path style="opacity:0.251" fill="#3c3c3c" d="M 296.5,201.5 C 298.795,202.136 300.461,203.469 301.5,205.5C 299.246,204.876 297.579,203.543 296.5,201.5 Z"/></g>
<g><path style="opacity:0.999" fill="#eeeeee" d="M 391.5,170.5 C 391.427,172.027 392.094,173.027 393.5,173.5C 392.201,177.37 391.534,181.37 391.5,185.5C 390.539,187.265 390.205,189.265 390.5,191.5C 388.744,192.552 388.077,194.219 388.5,196.5C 386.621,197.895 385.621,199.895 385.5,202.5C 385.5,203.5 385.5,204.5 385.5,205.5C 384.503,205.47 383.836,205.97 383.5,207C 381.235,212.601 378.902,218.101 376.5,223.5C 373.578,225.673 371.078,228.34 369,231.5C 368.59,232.901 368.09,234.234 367.5,235.5C 359.06,243.611 350.726,251.611 342.5,259.5C 341.307,259.97 340.64,260.97 340.5,262.5C 340.64,264.03 341.307,265.03 342.5,265.5C 342.5,267.167 342.5,268.833 342.5,270.5C 342.724,274.179 343.058,277.846 343.5,281.5C 344.105,283.026 345.271,284.026 347,284.5C 347.499,289.489 347.666,294.489 347.5,299.5C 346.622,303.336 345.956,307.336 345.5,311.5C 345.5,311.833 345.5,312.167 345.5,312.5C 344.021,313.759 342.354,314.759 340.5,315.5C 338.309,314.131 335.975,313.131 333.5,312.5C 335.099,312.768 336.432,312.434 337.5,311.5C 337.5,311.167 337.5,310.833 337.5,310.5C 337.833,310.5 338.167,310.5 338.5,310.5C 339.167,310.167 339.833,309.833 340.5,309.5C 341.268,308.737 341.768,307.737 342,306.5C 342.498,303.183 342.665,299.85 342.5,296.5C 343.299,293.57 343.632,290.57 343.5,287.5C 342.209,287.737 341.209,287.404 340.5,286.5C 334.167,285.167 327.833,285.167 321.5,286.5C 318.988,284.821 316.988,285.155 315.5,287.5C 312.5,287.5 309.5,287.5 306.5,287.5C 305.833,287.5 305.167,287.5 304.5,287.5C 299.5,287.5 294.5,287.5 289.5,287.5C 288.5,287.5 287.5,287.5 286.5,287.5C 282.167,287.5 277.833,287.5 273.5,287.5C 273.5,288.833 273.5,290.167 273.5,291.5C 273.5,292.167 273.5,292.833 273.5,293.5C 272.637,294.463 271.97,294.463 271.5,293.5C 272.754,291.357 272.754,289.357 271.5,287.5C 265.5,287.5 259.5,287.5 253.5,287.5C 252.873,291.366 251.873,295.032 250.5,298.5C 249.596,297.791 249.263,296.791 249.5,295.5C 250.581,292.373 251.247,289.04 251.5,285.5C 246.305,285.179 241.305,285.513 236.5,286.5C 236.5,287.833 236.5,289.167 236.5,290.5C 235.883,290.611 235.383,290.944 235,291.5C 234.819,294.695 234.319,297.695 233.5,300.5C 232.646,299.368 232.646,298.035 233.5,296.5C 233.395,292.452 233.728,288.452 234.5,284.5C 232.5,284.5 230.5,284.5 228.5,284.5C 227.508,282.974 226.008,282.307 224,282.5C 222.615,282.514 221.449,282.848 220.5,283.5C 219.908,286.127 219.575,288.794 219.5,291.5C 219.5,292.833 219.5,294.167 219.5,295.5C 217.631,297.635 216.964,300.302 217.5,303.5C 216.732,302.737 216.232,301.737 216,300.5C 215.617,301.056 215.117,301.389 214.5,301.5C 216.934,295.071 217.934,288.404 217.5,281.5C 212.482,280.823 207.482,280.323 202.5,280C 201.725,283.791 201.059,287.624 200.5,291.5C 199.833,291.5 199.5,291.167 199.5,290.5C 200.405,286.333 200.405,282.333 199.5,278.5C 198.167,278.5 196.833,278.5 195.5,278.5C 194.817,276.824 193.483,276.157 191.5,276.5C 190.448,274.744 188.781,274.077 186.5,274.5C 183.833,273.833 181.167,273.167 178.5,272.5C 177.5,272.5 176.5,272.5 175.5,272.5C 175.5,271.167 174.833,270.5 173.5,270.5C 172.21,269.065 170.544,268.065 168.5,267.5C 168.833,267.167 169.167,266.833 169.5,266.5C 172.417,265.934 175.417,265.934 178.5,266.5C 183.083,268.987 188.083,270.32 193.5,270.5C 193.611,271.117 193.944,271.617 194.5,272C 198.114,272.936 201.78,273.436 205.5,273.5C 207.279,275.344 209.612,276.01 212.5,275.5C 214.635,277.369 217.302,278.036 220.5,277.5C 223.728,278.414 227.061,278.747 230.5,278.5C 230.611,279.117 230.944,279.617 231.5,280C 237.189,280.373 242.855,280.873 248.5,281.5C 253.032,281.182 257.366,281.515 261.5,282.5C 277.328,283.661 293.328,283.828 309.5,283C 310.416,282.722 311.082,282.222 311.5,281.5C 317.167,281.5 322.833,281.5 328.5,281.5C 331.152,281.59 333.485,280.924 335.5,279.5C 336.117,279.389 336.617,279.056 337,278.5C 337.547,272.616 337.047,266.949 335.5,261.5C 333.37,250.759 330.037,240.259 325.5,230C 324.265,227.974 322.932,226.14 321.5,224.5C 320.189,221.865 318.522,219.531 316.5,217.5C 317.919,216.549 319.585,216.216 321.5,216.5C 322.823,217.608 324.323,217.608 326,216.5C 328.026,215.265 329.86,213.932 331.5,212.5C 332.167,212.5 332.5,212.167 332.5,211.5C 334.38,211.771 335.713,211.104 336.5,209.5C 338.674,209.25 340.341,208.25 341.5,206.5C 343.848,206.408 345.514,205.408 346.5,203.5C 348.312,203.229 349.978,202.562 351.5,201.5C 356.082,198.389 360.416,195.055 364.5,191.5C 365.916,189.821 367.25,188.154 368.5,186.5C 370.5,186.5 371.5,185.5 371.5,183.5C 373.027,183.573 374.027,182.906 374.5,181.5C 374.5,181.167 374.5,180.833 374.5,180.5C 377.167,178.827 379.167,176.493 380.5,173.5C 381.962,172.542 383.295,171.376 384.5,170C 386.885,169.444 389.218,169.61 391.5,170.5 Z M 383.5,187.5 C 383.167,189.5 382.833,191.5 382.5,193.5C 380.992,197.841 379.325,202.174 377.5,206.5C 377.5,206.833 377.5,207.167 377.5,207.5C 375.75,208.659 374.75,210.326 374.5,212.5C 374.5,212.833 374.5,213.167 374.5,213.5C 373.026,214.436 372.026,215.77 371.5,217.5C 370.263,218.965 369.263,220.632 368.5,222.5C 366.896,223.287 366.229,224.62 366.5,226.5C 364.5,226.5 363.5,227.5 363.5,229.5C 361.738,230.262 360.738,231.596 360.5,233.5C 360.5,234.167 360.167,234.5 359.5,234.5C 354.833,238.5 350.5,242.833 346.5,247.5C 346.5,248.167 346.167,248.5 345.5,248.5C 343.948,249.622 342.282,250.122 340.5,250C 338.939,247.217 337.606,244.383 336.5,241.5C 336.405,239.214 335.738,237.214 334.5,235.5C 334.25,233.326 333.25,231.659 331.5,230.5C 331.5,229.833 331.5,229.167 331.5,228.5C 330.465,226.795 330.465,225.128 331.5,223.5C 333.787,220.376 336.453,217.709 339.5,215.5C 341.179,215.715 342.179,215.048 342.5,213.5C 345.586,213.401 347.919,212.068 349.5,209.5C 350.492,209.672 351.158,209.338 351.5,208.5C 353.754,207.876 355.421,206.543 356.5,204.5C 358.853,203.66 360.853,202.326 362.5,200.5C 365.109,199.557 367.109,197.89 368.5,195.5C 369.5,195.167 370.167,194.5 370.5,193.5C 371.833,193.5 372.5,192.833 372.5,191.5C 373.167,191.5 373.5,191.167 373.5,190.5C 374.833,190.5 375.5,189.833 375.5,188.5C 378.756,186.75 381.589,184.417 384,181.5C 384.49,183.545 384.323,185.545 383.5,187.5 Z M 229.5,302.5 C 225.915,302.848 222.582,302.181 219.5,300.5C 219.5,298.833 219.5,297.167 219.5,295.5C 219.5,294.167 219.5,292.833 219.5,291.5C 220.578,289.461 221.578,287.294 222.5,285C 225.74,284.901 228.906,285.401 232,286.5C 232.667,289.167 232.667,291.833 232,294.5C 230.554,296.941 229.721,299.608 229.5,302.5 Z"/></g>
<g><path style="opacity:0.569" fill="#585858" d="M 362.5,200.5 C 360.853,202.326 358.853,203.66 356.5,204.5C 357.634,201.966 359.634,200.633 362.5,200.5 Z"/></g>
<g><path style="opacity:0.251" fill="#4c4c4c" d="M 368.5,195.5 C 367.109,197.89 365.109,199.557 362.5,200.5C 362.414,199.504 362.748,198.671 363.5,198C 364.9,196.562 366.567,195.729 368.5,195.5 Z"/></g>
<g><path style="opacity:0.043" fill="#2f2f2f" d="M 372.5,191.5 C 372.5,192.833 371.833,193.5 370.5,193.5C 370.833,192.5 371.5,191.833 372.5,191.5 Z"/></g>
<g><path style="opacity:0.457" fill="#525252" d="M 383.5,187.5 C 384.167,187.5 384.833,187.5 385.5,187.5C 385.5,187.833 385.5,188.167 385.5,188.5C 385.028,190.531 384.028,192.198 382.5,193.5C 382.833,191.5 383.167,189.5 383.5,187.5 Z"/></g>
<g><path style="opacity:0.078" fill="#303030" d="M 375.5,188.5 C 375.5,189.833 374.833,190.5 373.5,190.5C 373.833,189.5 374.5,188.833 375.5,188.5 Z"/></g>
<g><path style="opacity:0.737" fill="#a2a2a2" d="M 386.5,177.5 C 387.603,181.24 387.27,184.906 385.5,188.5C 385.5,188.167 385.5,187.833 385.5,187.5C 385.616,184.14 385.949,180.807 386.5,177.5 Z"/></g>
<g><path style="opacity:0.059" fill="#292929" d="M 384.5,177.5 C 385.167,177.5 385.833,177.5 386.5,177.5C 385.949,180.807 385.616,184.14 385.5,187.5C 384.833,187.5 384.167,187.5 383.5,187.5C 384.323,185.545 384.49,183.545 384,181.5C 381.589,184.417 378.756,186.75 375.5,188.5C 377.862,185.808 380.196,183.141 382.5,180.5C 383.906,180.027 384.573,179.027 384.5,177.5 Z"/></g>
<g><path style="opacity:0.329" fill="#737373" d="M 384.5,177.5 C 384.573,179.027 383.906,180.027 382.5,180.5C 382.427,178.973 383.094,177.973 384.5,177.5 Z"/></g>
<g><path style="opacity:0.027" fill="#484848" d="M 188.5,200.5 C 186.371,202.95 183.704,204.617 180.5,205.5C 182.391,202.612 185.058,200.945 188.5,200.5 Z"/></g>
<g><path style="opacity:0.282" fill="#333333" d="M 387.5,201.5 C 387.771,203.38 387.104,204.713 385.5,205.5C 385.5,204.5 385.5,203.5 385.5,202.5C 386.167,202.167 386.833,201.833 387.5,201.5 Z"/></g>
<g><path style="opacity:0.349" fill="#383838" d="M 176.5,201.5 C 173.833,204.833 170.833,207.833 167.5,210.5C 169.5,206.5 172.5,203.5 176.5,201.5 Z"/></g>
<g><path style="opacity:0.447" fill="#484848" d="M 346.5,203.5 C 345.514,205.408 343.848,206.408 341.5,206.5C 342.659,204.75 344.326,203.75 346.5,203.5 Z"/></g>
<g><path style="opacity:0.286" fill="#404040" d="M 382.5,193.5 C 382.571,198.637 380.905,202.97 377.5,206.5C 379.325,202.174 380.992,197.841 382.5,193.5 Z"/></g>
<g><path style="opacity:0.949" fill="#848484" d="M 180.5,206.5 C 179.167,208.5 177.5,210.167 175.5,211.5C 176.038,209.883 176.371,208.216 176.5,206.5C 177.833,206.5 179.167,206.5 180.5,206.5 Z"/></g>
<g><path style="opacity:0.09" fill="#3c3c3c" d="M 302.5,205.5 C 303.5,205.833 304.167,206.5 304.5,207.5C 303.167,207.5 302.5,206.833 302.5,205.5 Z"/></g>
<g><path style="opacity:0.255" fill="#4f4f4f" d="M 356.5,204.5 C 355.421,206.543 353.754,207.876 351.5,208.5C 351.967,205.703 353.633,204.369 356.5,204.5 Z"/></g>
<g><path style="opacity:0.18" fill="#262626" d="M 341.5,206.5 C 340.341,208.25 338.674,209.25 336.5,209.5C 337.659,207.75 339.326,206.75 341.5,206.5 Z"/></g>
<g><path style="opacity:0.333" fill="#353535" d="M 142.5,202.5 C 145.659,204.91 147.325,208.243 147.5,212.5C 145.323,209.48 143.657,206.147 142.5,202.5 Z"/></g>
<g><path style="opacity:0.365" fill="#585858" d="M 314.5,207.5 C 316.5,208.833 318.167,210.5 319.5,212.5C 316.833,211.833 315.167,210.167 314.5,207.5 Z"/></g>
<g><path style="opacity:0.278" fill="#3a3a3a" d="M 336.5,209.5 C 335.713,211.104 334.38,211.771 332.5,211.5C 333.514,210.326 334.847,209.66 336.5,209.5 Z"/></g>
<g><path style="opacity:0.561" fill="#4e4e4e" d="M 377.5,207.5 C 377.408,209.848 376.408,211.514 374.5,212.5C 374.75,210.326 375.75,208.659 377.5,207.5 Z"/></g>
<g><path style="opacity:0.655" fill="#676767" d="M 167.5,210.5 C 167.144,212.19 166.144,213.19 164.5,213.5C 164.856,211.81 165.856,210.81 167.5,210.5 Z"/></g>
<g><path style="opacity:0.247" fill="#4e4e4e" d="M 174.5,212.5 C 174.167,213.5 173.5,214.167 172.5,214.5C 172.5,213.167 173.167,212.5 174.5,212.5 Z"/></g>
<g><path style="opacity:0.216" fill="#434343" d="M 349.5,209.5 C 347.919,212.068 345.586,213.401 342.5,213.5C 344.43,211.55 346.763,210.217 349.5,209.5 Z"/></g>
<g><path style="opacity:0.208" fill="#393939" d="M 304.5,208.5 C 305.552,208.351 306.552,208.517 307.5,209C 310.396,212.066 313.396,214.899 316.5,217.5C 318.522,219.531 320.189,221.865 321.5,224.5C 315.88,219.216 310.213,213.883 304.5,208.5 Z"/></g>
<g><path style="opacity:0.247" fill="#363636" d="M 147.5,212.5 C 148.974,213.436 149.974,214.77 150.5,216.5C 148.554,215.965 147.554,214.632 147.5,212.5 Z"/></g>
<g><path style="opacity:0.008" fill="#212121" d="M 342.5,213.5 C 342.179,215.048 341.179,215.715 339.5,215.5C 339.5,215.167 339.5,214.833 339.5,214.5C 340.609,214.443 341.609,214.11 342.5,213.5 Z"/></g>
<g><path style="opacity:0.278" fill="#484848" d="M 374.5,213.5 C 374.446,215.632 373.446,216.965 371.5,217.5C 372.026,215.77 373.026,214.436 374.5,213.5 Z"/></g>
<g><path style="opacity:0.455" fill="#505050" d="M 331.5,212.5 C 329.86,213.932 328.026,215.265 326,216.5C 324.323,217.608 322.823,217.608 321.5,216.5C 321.267,214.938 320.6,213.605 319.5,212.5C 321.377,212.9 322.877,213.9 324,215.5C 326.317,214.174 328.651,212.84 331,211.5C 331.399,211.728 331.565,212.062 331.5,212.5 Z"/></g>
<g><path style="opacity:0.384" fill="#595959" d="M 150.5,216.5 C 152.45,218.43 153.783,220.763 154.5,223.5C 154.167,223.5 153.833,223.5 153.5,223.5C 152.31,221.645 150.977,219.812 149.5,218C 150.056,217.617 150.389,217.117 150.5,216.5 Z"/></g>
<g><path style="opacity:0.416" fill="#464646" d="M 172.5,214.5 C 170.853,217.473 168.853,220.14 166.5,222.5C 167.066,218.643 169.066,215.977 172.5,214.5 Z"/></g>
<g><path style="opacity:0.541" fill="#4e4e4e" d="M 385.5,205.5 C 383.253,211.93 380.253,217.93 376.5,223.5C 378.902,218.101 381.235,212.601 383.5,207C 383.836,205.97 384.503,205.47 385.5,205.5 Z"/></g>
<g><path style="opacity:0.298" fill="#434343" d="M 371.5,217.5 C 371.741,220.034 370.741,221.7 368.5,222.5C 369.263,220.632 370.263,218.965 371.5,217.5 Z"/></g>
<g><path style="opacity:0.224" fill="#333333" d="M 368.5,222.5 C 368.34,224.153 367.674,225.486 366.5,226.5C 366.229,224.62 366.896,223.287 368.5,222.5 Z"/></g>
<g><path style="opacity:0.031" fill="#2c2c2c" d="M 166.5,222.5 C 166.144,224.19 165.144,225.19 163.5,225.5C 163.856,223.81 164.856,222.81 166.5,222.5 Z"/></g>
<g><path style="opacity:0.129" fill="#262626" d="M 153.5,223.5 C 153.833,223.5 154.167,223.5 154.5,223.5C 156.062,225.901 155.729,227.901 153.5,229.5C 154.833,227.5 154.833,225.5 153.5,223.5 Z"/></g>
<g><path style="opacity:0.18" fill="#464646" d="M 339.5,214.5 C 339.5,214.833 339.5,215.167 339.5,215.5C 336.453,217.709 333.787,220.376 331.5,223.5C 330.465,225.128 330.465,226.795 331.5,228.5C 329.092,227.685 328.259,226.019 329,223.5C 331.446,219.217 334.946,216.217 339.5,214.5 Z"/></g>
<g><path style="opacity:0.133" fill="#393939" d="M 163.5,226.5 C 163.201,228.455 162.201,229.789 160.5,230.5C 160.799,228.545 161.799,227.211 163.5,226.5 Z"/></g>
<g><path style="opacity:0.227" fill="#323232" d="M 366.5,226.5 C 365.833,227.833 364.833,228.833 363.5,229.5C 363.5,227.5 364.5,226.5 366.5,226.5 Z"/></g>
<g><path style="opacity:0.169" fill="#434343" d="M 376.5,223.5 C 374.206,228.114 371.206,232.114 367.5,235.5C 368.09,234.234 368.59,232.901 369,231.5C 371.078,228.34 373.578,225.673 376.5,223.5 Z"/></g>
<g><path style="opacity:0.231" fill="#2e2e2e" d="M 363.5,229.5 C 363.262,231.404 362.262,232.738 360.5,233.5C 360.738,231.596 361.738,230.262 363.5,229.5 Z"/></g>
<g><path style="opacity:0.247" fill="#414141" d="M 153.5,230.5 C 153.25,232.674 152.25,234.341 150.5,235.5C 150.75,233.326 151.75,231.659 153.5,230.5 Z"/></g>
<g><path style="opacity:0.267" fill="#3d3d3d" d="M 331.5,230.5 C 333.25,231.659 334.25,233.326 334.5,235.5C 333.833,235.167 333.167,234.833 332.5,234.5C 332.167,233.167 331.833,231.833 331.5,230.5 Z"/></g>
<g><path style="opacity:0.541" fill="#565656" d="M 160.5,231.5 C 159.921,234.331 158.588,236.664 156.5,238.5C 156.599,235.361 157.932,233.027 160.5,231.5 Z"/></g>
<g><path style="opacity:0.051" fill="#212121" d="M 334.5,235.5 C 335.738,237.214 336.405,239.214 336.5,241.5C 336.167,241.5 335.833,241.5 335.5,241.5C 335.5,240.833 335.167,240.5 334.5,240.5C 334.5,238.833 334.5,237.167 334.5,235.5 Z"/></g>
<g><path style="opacity:0.725" fill="#a6a6a6" d="M 332.5,234.5 C 333.167,234.833 333.833,235.167 334.5,235.5C 334.5,237.167 334.5,238.833 334.5,240.5C 333.542,238.698 332.875,236.698 332.5,234.5 Z"/></g>
<g><path style="opacity:0.275" fill="#363636" d="M 150.5,235.5 C 150.539,238.089 149.539,240.089 147.5,241.5C 147.992,239.181 148.992,237.181 150.5,235.5 Z"/></g>
<g><path style="opacity:0.435" fill="#4f4f4f" d="M 359.5,234.5 C 356.167,239.833 351.833,244.167 346.5,247.5C 350.5,242.833 354.833,238.5 359.5,234.5 Z"/></g>
<g><path style="opacity:0.302" fill="#353535" d="M 147.5,241.5 C 147.88,243.698 147.213,245.365 145.5,246.5C 145.796,244.597 146.463,242.93 147.5,241.5 Z"/></g>
<g><path style="opacity:0.149" fill="#373737" d="M 335.5,241.5 C 335.833,241.5 336.167,241.5 336.5,241.5C 337.606,244.383 338.939,247.217 340.5,250C 342.282,250.122 343.948,249.622 345.5,248.5C 343.971,251.47 341.638,252.136 338.5,250.5C 336.956,247.644 335.956,244.644 335.5,241.5 Z"/></g>
<g><path style="opacity:0.416" fill="#3d3d3d" d="M 155.5,241.5 C 154.664,245.172 153.331,248.672 151.5,252C 153.619,252.342 153.953,253.175 152.5,254.5C 151.053,253.866 150.387,252.699 150.5,251C 151.782,248.436 152.782,245.769 153.5,243C 153.836,241.97 154.503,241.47 155.5,241.5 Z"/></g>
<g><path style="opacity:0.106" fill="#434343" d="M 321.5,224.5 C 322.932,226.14 324.265,227.974 325.5,230C 330.037,240.259 333.37,250.759 335.5,261.5C 335.5,262.5 335.5,263.5 335.5,264.5C 333.015,255.202 330.182,245.868 327,236.5C 324.875,232.587 323.042,228.587 321.5,224.5 Z"/></g>
<g><path style="opacity:0.039" fill="#383838" d="M 367.5,235.5 C 360.936,245.247 352.602,253.247 342.5,259.5C 350.726,251.611 359.06,243.611 367.5,235.5 Z"/></g>
<g><path style="opacity:0.357" fill="#494949" d="M 145.5,248.5 C 144.699,250.042 144.366,251.708 144.5,253.5C 137.855,254.809 134.522,258.809 134.5,265.5C 134.5,263.833 134.5,262.167 134.5,260.5C 134.709,259.078 135.209,257.745 136,256.5C 139.488,253.913 142.655,251.246 145.5,248.5 Z"/></g>
<g><path style="opacity:0.294" fill="#414141" d="M 152.5,254.5 C 156.401,255.756 160.068,257.423 163.5,259.5C 159.174,259.147 155.507,257.48 152.5,254.5 Z"/></g>
<g><path style="opacity:0.184" fill="#424242" d="M 342.5,259.5 C 342.065,261.297 342.065,263.297 342.5,265.5C 341.307,265.03 340.64,264.03 340.5,262.5C 340.64,260.97 341.307,259.97 342.5,259.5 Z"/></g>
<g><path style="opacity:0.098" fill="#333333" d="M 163.5,259.5 C 165.848,259.592 167.514,260.592 168.5,262.5C 166.152,262.408 164.486,261.408 163.5,259.5 Z"/></g>
<g><path style="opacity:0.447" fill="#404040" d="M 156.5,264.5 C 151.968,263.252 147.468,263.252 143,264.5C 139.891,270.157 139.058,276.157 140.5,282.5C 139.048,280.152 138.382,277.486 138.5,274.5C 138.347,262.932 143.847,258.932 155,262.5C 156.03,262.836 156.53,263.503 156.5,264.5 Z"/></g>
<g><path style="opacity:0.192" fill="#3b3b3b" d="M 169.5,262.5 C 172.346,262.552 174.68,263.552 176.5,265.5C 173.728,265.241 171.395,264.241 169.5,262.5 Z"/></g>
<g><path style="opacity:0.416" fill="#4c4c4c" d="M 156.5,264.5 C 158.861,264.674 161.194,265.007 163.5,265.5C 163.5,266.833 163.5,268.167 163.5,269.5C 162.833,269.833 162.167,270.167 161.5,270.5C 162.028,269.153 162.195,267.819 162,266.5C 161.667,266.833 161.333,267.167 161,267.5C 159.591,266.219 158.091,265.219 156.5,264.5 Z"/></g>
<g><path style="opacity:0.176" fill="#3d3d3d" d="M 178.5,265.5 C 183.509,267.296 188.509,268.962 193.5,270.5C 188.083,270.32 183.083,268.987 178.5,266.5C 178.5,266.167 178.5,265.833 178.5,265.5 Z"/></g>
<g><path style="opacity:0.502" fill="#747474" d="M 167.5,268.5 C 165.952,268.821 165.285,269.821 165.5,271.5C 165.5,271.833 165.5,272.167 165.5,272.5C 165.167,272.5 164.833,272.5 164.5,272.5C 164.5,272.167 164.5,271.833 164.5,271.5C 164.5,270.167 164.5,268.833 164.5,267.5C 165.791,267.263 166.791,267.596 167.5,268.5 Z"/></g>
<g><path style="opacity:0.02" fill="#0f0f0f" d="M 167.5,268.5 C 167.5,268.833 167.5,269.167 167.5,269.5C 166.833,270.167 166.167,270.833 165.5,271.5C 165.285,269.821 165.952,268.821 167.5,268.5 Z"/></g>
<g><path style="opacity:0.051" fill="#252525" d="M 168.5,269.5 C 170.216,269.629 171.883,269.962 173.5,270.5C 174.833,270.5 175.5,271.167 175.5,272.5C 172.843,272.065 170.509,271.065 168.5,269.5 Z"/></g>
<g><path style="opacity:0.178" fill="#212121" d="M 134.5,260.5 C 134.5,262.167 134.5,263.833 134.5,265.5C 133.51,271.31 133.177,277.31 133.5,283.5C 132.835,280.518 132.502,277.352 132.5,274C 132.308,269.228 132.975,264.728 134.5,260.5 Z"/></g>
<g><path style="opacity:0.18" fill="#393939" d="M 193.5,270.5 C 197.713,271.082 201.713,272.082 205.5,273.5C 201.78,273.436 198.114,272.936 194.5,272C 193.944,271.617 193.611,271.117 193.5,270.5 Z"/></g>
<g><path style="opacity:0.288" fill="#585858" d="M 335.5,261.5 C 337.047,266.949 337.547,272.616 337,278.5C 336.617,279.056 336.117,279.389 335.5,279.5C 335.852,274.593 335.852,269.593 335.5,264.5C 335.5,263.5 335.5,262.5 335.5,261.5 Z"/></g>
<g><path style="opacity:0.263" fill="#3e3e3e" d="M 178.5,272.5 C 181.167,273.167 183.833,273.833 186.5,274.5C 186.573,276.027 185.906,277.027 184.5,277.5C 182.592,275.836 180.592,274.169 178.5,272.5 Z"/></g>
<g><path style="opacity:0.2" fill="#2c2c2c" d="M 164.5,272.5 C 164.833,272.5 165.167,272.5 165.5,272.5C 165.598,274.553 164.931,276.22 163.5,277.5C 163.366,275.708 163.699,274.042 164.5,272.5 Z"/></g>
<g><path style="opacity:0.365" fill="#5a5a5a" d="M 205.5,273.5 C 207.806,273.993 210.139,274.326 212.5,274.5C 212.5,274.833 212.5,275.167 212.5,275.5C 209.612,276.01 207.279,275.344 205.5,273.5 Z"/></g>
<g><path style="opacity:0.133" fill="#1c1c1c" d="M 212.5,275.5 C 212.5,275.167 212.5,274.833 212.5,274.5C 214.553,274.402 216.22,275.069 217.5,276.5C 215.708,276.634 214.042,276.301 212.5,275.5 Z"/></g>
<g><path style="opacity:0.361" fill="#434343" d="M 191.5,276.5 C 193.483,276.157 194.817,276.824 195.5,278.5C 193.94,278.481 192.44,278.148 191,277.5C 189.989,278.056 189.156,278.722 188.5,279.5C 188.121,276.433 189.121,275.433 191.5,276.5 Z"/></g>
<g><path style="opacity:0.643" fill="#a8a8a8" d="M 212.5,275.5 C 214.042,276.301 215.708,276.634 217.5,276.5C 218.5,276.5 219.5,276.5 220.5,276.5C 220.5,276.833 220.5,277.167 220.5,277.5C 217.302,278.036 214.635,277.369 212.5,275.5 Z"/></g>
<g><path style="opacity:0.723" fill="#adadad" d="M 134.5,265.5 C 134.211,271.591 134.545,277.591 135.5,283.5C 134.833,283.5 134.167,283.5 133.5,283.5C 133.177,277.31 133.51,271.31 134.5,265.5 Z"/></g>
<g><path style="opacity:0.133" fill="#343434" d="M 220.5,277.5 C 220.5,277.167 220.5,276.833 220.5,276.5C 226.105,276.779 231.438,277.779 236.5,279.5C 234.435,279.483 232.435,279.15 230.5,278.5C 227.061,278.747 223.728,278.414 220.5,277.5 Z"/></g>
<g><path style="opacity:0.261" fill="#3a3a3a" d="M 342.5,270.5 C 343.992,274.264 344.992,278.264 345.5,282.5C 344.833,282.167 344.167,281.833 343.5,281.5C 343.058,277.846 342.724,274.179 342.5,270.5 Z"/></g>
<g><path style="opacity:0.075" fill="#171717" d="M 195.5,278.5 C 196.833,278.5 198.167,278.5 199.5,278.5C 199.784,280.415 199.451,282.081 198.5,283.5C 198.5,282.167 198.5,280.833 198.5,279.5C 197.209,279.737 196.209,279.404 195.5,278.5 Z"/></g>
<g><path style="opacity:0.353" fill="#6f6f6f" d="M 230.5,278.5 C 232.435,279.15 234.435,279.483 236.5,279.5C 239.833,279.5 243.167,279.5 246.5,279.5C 247.167,280.167 247.833,280.833 248.5,281.5C 242.855,280.873 237.189,280.373 231.5,280C 230.944,279.617 230.611,279.117 230.5,278.5 Z"/></g>
<g><path style="opacity:0.749" fill="#969696" d="M 331.5,279.5 C 332.833,279.5 334.167,279.5 335.5,279.5C 333.485,280.924 331.152,281.59 328.5,281.5C 329.5,280.833 330.5,280.167 331.5,279.5 Z"/></g>
<g><path style="opacity:0.122" fill="#2e2e2e" d="M 161.5,270.5 C 161.671,276.014 160.337,281.014 157.5,285.5C 157.167,285.5 156.833,285.5 156.5,285.5C 158.483,280.56 160.15,275.56 161.5,270.5 Z"/></g>
<g><path style="opacity:0.048" fill="#2c2c2c" d="M 246.5,279.5 C 274.822,281.995 303.156,281.995 331.5,279.5C 330.5,280.167 329.5,280.833 328.5,281.5C 322.833,281.5 317.167,281.5 311.5,281.5C 294.868,282.457 278.201,282.79 261.5,282.5C 257.366,281.515 253.032,281.182 248.5,281.5C 247.833,280.833 247.167,280.167 246.5,279.5 Z"/></g>
<g><path style="opacity:0.808" fill="#c3c3c3" d="M 163.5,269.5 C 163.328,270.492 163.662,271.158 164.5,271.5C 164.5,271.833 164.5,272.167 164.5,272.5C 163.699,274.042 163.366,275.708 163.5,277.5C 163.5,278.167 163.5,278.833 163.5,279.5C 161.464,281.206 160.464,283.539 160.5,286.5C 160.5,286.833 160.5,287.167 160.5,287.5C 160.167,287.5 159.833,287.5 159.5,287.5C 159.158,286.662 158.492,286.328 157.5,286.5C 157.5,286.167 157.5,285.833 157.5,285.5C 160.337,281.014 161.671,276.014 161.5,270.5C 162.167,270.167 162.833,269.833 163.5,269.5 Z"/></g>
<g><path style="opacity:0.569" fill="#999999" d="M 311.5,281.5 C 311.082,282.222 310.416,282.722 309.5,283C 293.328,283.828 277.328,283.661 261.5,282.5C 278.201,282.79 294.868,282.457 311.5,281.5 Z"/></g>
<g><path style="opacity:0.11" fill="#343434" d="M 163.5,279.5 C 163.241,282.272 162.241,284.605 160.5,286.5C 160.464,283.539 161.464,281.206 163.5,279.5 Z"/></g>
<g><path style="opacity:0.86" fill="#c6c6c6" d="M 186.5,274.5 C 188.781,274.077 190.448,274.744 191.5,276.5C 189.121,275.433 188.121,276.433 188.5,279.5C 188.5,279.833 188.5,280.167 188.5,280.5C 185.579,284.176 183.912,288.51 183.5,293.5C 183.52,294.726 183.853,295.726 184.5,296.5C 184.5,296.833 184.5,297.167 184.5,297.5C 182.57,297.229 181.236,296.229 180.5,294.5C 180.833,293.167 181.167,291.833 181.5,290.5C 181.5,289.5 181.5,288.5 181.5,287.5C 183.357,285.718 184.357,283.385 184.5,280.5C 184.5,279.5 184.5,278.5 184.5,277.5C 185.906,277.027 186.573,276.027 186.5,274.5 Z"/></g>
<g><path style="opacity:0.694" fill="#9d9d9d" d="M 220.5,283.5 C 221.449,282.848 222.615,282.514 224,282.5C 226.008,282.307 227.508,282.974 228.5,284.5C 225.904,283.735 223.237,283.401 220.5,283.5 Z"/></g>
<g><path style="opacity:0.208" fill="#2d2d2d" d="M 184.5,280.5 C 184.357,283.385 183.357,285.718 181.5,287.5C 181.552,284.654 182.552,282.32 184.5,280.5 Z"/></g>
<g><path style="opacity:0.057" fill="#272727" d="M 141.5,282.5 C 142.627,283.122 143.627,283.955 144.5,285C 148.052,285.878 151.386,287.044 154.5,288.5C 153.167,288.5 151.833,288.5 150.5,288.5C 148.337,287.531 146.004,286.698 143.5,286C 142.177,285.184 141.511,284.017 141.5,282.5 Z"/></g>
<g><path style="opacity:0.502" fill="#767676" d="M 199.5,278.5 C 200.405,282.333 200.405,286.333 199.5,290.5C 199.167,290.5 198.833,290.5 198.5,290.5C 198.5,289.833 198.5,289.167 198.5,288.5C 198.5,286.833 198.5,285.167 198.5,283.5C 199.451,282.081 199.784,280.415 199.5,278.5 Z"/></g>
<g><path style="opacity:0.016" fill="#121212" d="M 322.5,286.5 C 325.5,286.5 328.5,286.5 331.5,286.5C 331.5,287.167 331.833,287.5 332.5,287.5C 332.717,292.23 332.383,296.897 331.5,301.5C 331.167,301.5 330.833,301.5 330.5,301.5C 331.249,297.181 331.415,292.848 331,288.5C 328.168,287.214 325.335,287.214 322.5,288.5C 322.5,287.833 322.5,287.167 322.5,286.5 Z"/></g>
<g><path style="opacity:0.071" fill="#101010" d="M 236.5,286.5 C 237.167,286.5 237.833,286.5 238.5,286.5C 237.952,288.626 237.285,290.626 236.5,292.5C 236.5,291.833 236.5,291.167 236.5,290.5C 236.5,289.167 236.5,287.833 236.5,286.5 Z"/></g>
<g><path style="opacity:0.357" fill="#636363" d="M 286.5,287.5 C 287.301,289.042 287.634,290.708 287.5,292.5C 286.833,291.5 286.167,290.5 285.5,289.5C 282.038,288.518 278.371,288.185 274.5,288.5C 274.737,289.791 274.404,290.791 273.5,291.5C 273.5,290.167 273.5,288.833 273.5,287.5C 277.833,287.5 282.167,287.5 286.5,287.5 Z"/></g>
<g><path style="opacity:0.282" fill="#464646" d="M 306.5,287.5 C 309.5,287.5 312.5,287.5 315.5,287.5C 316.833,287.5 318.167,287.5 319.5,287.5C 319.806,290.385 319.473,293.052 318.5,295.5C 318.682,293.409 318.348,291.409 317.5,289.5C 314.572,288.516 311.572,288.183 308.5,288.5C 307.833,289.833 307.167,291.167 306.5,292.5C 306.5,290.833 306.5,289.167 306.5,287.5 Z"/></g>
<g><path style="opacity:0.884" fill="#ababab" d="M 321.5,286.5 C 327.833,285.167 334.167,285.167 340.5,286.5C 339.833,286.5 339.167,286.5 338.5,286.5C 337.833,286.5 337.167,286.5 336.5,286.5C 334.988,291.929 334.321,297.596 334.5,303.5C 334.167,303.5 333.833,303.5 333.5,303.5C 333.869,301.007 333.203,300.34 331.5,301.5C 332.383,296.897 332.717,292.23 332.5,287.5C 331.833,287.5 331.5,287.167 331.5,286.5C 328.5,286.5 325.5,286.5 322.5,286.5C 322.167,286.5 321.833,286.5 321.5,286.5 Z"/></g>
<g><path style="opacity:0.086" fill="#2b2b2b" d="M 133.5,283.5 C 134.167,283.5 134.833,283.5 135.5,283.5C 136.063,286.295 137.396,288.628 139.5,290.5C 136.092,289.422 134.092,287.089 133.5,283.5 Z"/></g>
<g><path style="opacity:0.999" fill="#f6f6f6" d="M 157.5,286.5 C 158.492,286.328 159.158,286.662 159.5,287.5C 158.566,288.568 158.232,289.901 158.5,291.5C 160.806,291.993 163.139,292.326 165.5,292.5C 166.5,292.5 167.5,292.5 168.5,292.5C 170.279,294.344 172.612,295.01 175.5,294.5C 177.284,295.72 178.95,295.72 180.5,294.5C 181.236,296.229 182.57,297.229 184.5,297.5C 187.279,297.279 189.946,297.612 192.5,298.5C 194.736,299.982 197.069,300.315 199.5,299.5C 204.306,300.593 209.306,301.259 214.5,301.5C 215.117,301.389 215.617,301.056 216,300.5C 216.232,301.737 216.732,302.737 217.5,303.5C 220.5,303.5 223.5,303.5 226.5,303.5C 227.879,306.047 229.546,306.047 231.5,303.5C 232.183,303.863 232.85,304.196 233.5,304.5C 234.167,304.5 234.833,304.5 235.5,304.5C 235.611,305.117 235.944,305.617 236.5,306C 240.152,306.499 243.818,306.665 247.5,306.5C 247.5,305.5 247.5,304.5 247.5,303.5C 248.492,303.328 249.158,303.662 249.5,304.5C 249.5,305.5 249.5,306.5 249.5,307.5C 255.987,308.515 262.654,309.182 269.5,309.5C 269.963,306.518 270.296,303.518 270.5,300.5C 270.5,299.5 270.5,298.5 270.5,297.5C 271.167,301.5 271.833,305.5 272.5,309.5C 277.568,310.434 282.568,310.434 287.5,309.5C 288.167,309.833 288.833,310.167 289.5,310.5C 293.664,311.611 297.997,312.111 302.5,312C 303.423,309.959 303.756,307.792 303.5,305.5C 303.5,303.833 303.5,302.167 303.5,300.5C 304.925,298.969 305.591,299.302 305.5,301.5C 304.213,305.268 304.213,308.935 305.5,312.5C 309.5,312.5 313.5,312.5 317.5,312.5C 317.5,310.833 317.5,309.167 317.5,307.5C 319.203,306.34 319.869,307.007 319.5,309.5C 318.566,310.568 318.232,311.901 318.5,313.5C 323.032,313.818 327.366,313.485 331.5,312.5C 331.5,308.833 331.5,305.167 331.5,301.5C 333.203,300.34 333.869,301.007 333.5,303.5C 333.5,303.833 333.5,304.167 333.5,304.5C 332.167,307.167 332.167,309.833 333.5,312.5C 335.975,313.131 338.309,314.131 340.5,315.5C 340.5,316.167 340.5,316.833 340.5,317.5C 339.167,317.5 337.833,317.5 336.5,317.5C 333.813,317.336 331.146,317.503 328.5,318C 326.576,319.75 324.909,321.583 323.5,323.5C 319.922,325.076 316.922,327.409 314.5,330.5C 314.328,331.492 314.662,332.158 315.5,332.5C 316.211,334.201 317.545,335.201 319.5,335.5C 321.033,337.245 323.033,338.245 325.5,338.5C 325.833,338.5 326.167,338.5 326.5,338.5C 327.552,340.256 329.219,340.923 331.5,340.5C 334.706,342.448 338.039,344.448 341.5,346.5C 342.167,346.5 342.5,346.833 342.5,347.5C 343.341,349.379 343.675,351.379 343.5,353.5C 343.5,354.167 343.167,354.5 342.5,354.5C 336.927,354.564 331.594,353.564 326.5,351.5C 325.599,349.273 323.933,348.273 321.5,348.5C 321.19,346.856 320.19,345.856 318.5,345.5C 318.167,345.5 317.833,345.5 317.5,345.5C 317.631,344.624 317.298,343.957 316.5,343.5C 315.794,349.552 315.127,355.552 314.5,361.5C 311.552,361.777 308.719,361.444 306,360.5C 306.102,356.044 305.268,352.044 303.5,348.5C 303.821,343.305 303.487,338.305 302.5,333.5C 302.5,333.167 302.5,332.833 302.5,332.5C 302.748,326.956 302.081,321.623 300.5,316.5C 294.99,315.789 289.657,315.789 284.5,316.5C 283.833,316.5 283.5,316.833 283.5,317.5C 281.961,318.767 280.294,319.767 278.5,320.5C 270.812,325.413 266.478,332.579 265.5,342C 265.569,343.986 266.235,345.486 267.5,346.5C 267.822,350.976 270.156,352.476 274.5,351C 275.056,350.617 275.389,350.117 275.5,349.5C 275.833,349.5 276.167,349.5 276.5,349.5C 278.404,349.262 279.738,348.262 280.5,346.5C 283.738,342.912 287.738,341.745 292.5,343C 294.396,344.808 294.896,346.975 294,349.5C 291.8,350.651 290.3,352.318 289.5,354.5C 285.534,355.042 282.2,356.708 279.5,359.5C 278.833,359.5 278.167,359.5 277.5,359.5C 272.213,360.342 266.88,360.676 261.5,360.5C 260.128,358.911 258.461,357.578 256.5,356.5C 255.873,355.583 255.539,354.583 255.5,353.5C 254.385,347.519 254.385,341.519 255.5,335.5C 257.382,332.4 258.715,329.067 259.5,325.5C 259.5,324.833 259.833,324.5 260.5,324.5C 262.914,323.089 264.581,321.089 265.5,318.5C 266.167,318.167 266.833,317.833 267.5,317.5C 269.176,316.817 269.843,315.483 269.5,313.5C 265.833,313.5 262.167,313.5 258.5,313.5C 254.265,312.564 249.931,312.231 245.5,312.5C 245.389,311.883 245.056,311.383 244.5,311C 241.518,310.502 238.518,310.335 235.5,310.5C 235.263,311.791 235.596,312.791 236.5,313.5C 237.864,315.191 239.197,316.858 240.5,318.5C 240.973,322.733 241.973,326.733 243.5,330.5C 243.78,339.886 243.447,349.22 242.5,358.5C 241.833,359.833 241.167,361.167 240.5,362.5C 238.5,363.833 236.5,363.833 234.5,362.5C 229.944,360.558 224.944,359.892 219.5,360.5C 215.901,361.344 212.234,361.677 208.5,361.5C 206.468,360.952 205.468,359.619 205.5,357.5C 205.5,355.5 205.5,353.5 205.5,351.5C 207.286,344.715 211.286,339.715 217.5,336.5C 219.063,334.667 220.73,333 222.5,331.5C 225.1,329.717 227.434,327.717 229.5,325.5C 230.34,322.661 230.673,319.827 230.5,317C 229.207,316.51 227.873,316.343 226.5,316.5C 224.396,316.201 222.396,316.534 220.5,317.5C 217.082,318.902 213.915,320.569 211,322.5C 207.997,322.257 206.83,320.59 207.5,317.5C 209.437,316.046 211.103,314.379 212.5,312.5C 215.166,312.067 217.832,311.567 220.5,311C 221.973,310.29 222.64,309.124 222.5,307.5C 216.5,307.167 210.5,306.833 204.5,306.5C 203.848,305.275 202.681,304.608 201,304.5C 198.183,303.969 195.35,303.636 192.5,303.5C 190.833,303.5 189.167,303.5 187.5,303.5C 185.143,301.902 182.477,300.902 179.5,300.5C 176.997,299.629 174.33,298.963 171.5,298.5C 168.14,298.384 164.807,298.051 161.5,297.5C 161.5,302.167 161.5,306.833 161.5,311.5C 162.791,311.737 163.791,311.404 164.5,310.5C 166.042,309.699 167.708,309.366 169.5,309.5C 174.864,308.213 180.198,308.213 185.5,309.5C 187.5,310.5 189.5,311.5 191.5,312.5C 191.5,313.167 191.5,313.833 191.5,314.5C 191.621,317.105 192.621,319.105 194.5,320.5C 194.5,320.833 194.5,321.167 194.5,321.5C 194.832,333.186 194.499,344.852 193.5,356.5C 192.738,357.628 192.071,358.795 191.5,360C 188.408,360.736 185.408,360.569 182.5,359.5C 182.343,351.479 182.677,343.479 183.5,335.5C 183.282,331.287 182.616,327.287 181.5,323.5C 176.378,319.259 172.044,319.925 168.5,325.5C 167.15,326.483 166.15,327.816 165.5,329.5C 164.201,337.558 164.201,345.558 165.5,353.5C 165.5,356.167 165.5,358.833 165.5,361.5C 162.833,361.5 160.167,361.5 157.5,361.5C 156.883,361.389 156.383,361.056 156,360.5C 155.819,357.305 155.319,354.305 154.5,351.5C 154.665,348.15 154.498,344.817 154,341.5C 153.617,340.944 153.117,340.611 152.5,340.5C 152.779,335.405 152.445,330.405 151.5,325.5C 151.665,322.15 151.498,318.817 151,315.5C 150.617,314.944 150.117,314.611 149.5,314.5C 148.833,307.167 148.167,299.833 147.5,292.5C 147.082,291.778 146.416,291.278 145.5,291C 146.653,289.117 148.319,288.284 150.5,288.5C 152.607,289.468 154.941,289.802 157.5,289.5C 157.5,288.5 157.5,287.5 157.5,286.5 Z M 231.5,337.5 C 231.663,339.857 231.497,342.19 231,344.5C 228.8,345.651 227.3,347.318 226.5,349.5C 226.167,349.5 225.833,349.5 225.5,349.5C 223.506,350.35 221.506,350.85 219.5,351C 218.464,349.224 218.464,347.391 219.5,345.5C 222.988,342.912 226.321,340.078 229.5,337C 230.437,336.308 231.103,336.475 231.5,337.5 Z"/></g>
<g><path style="opacity:0.373" fill="#6e6e6e" d="M 156.5,285.5 C 156.833,285.5 157.167,285.5 157.5,285.5C 157.5,285.833 157.5,286.167 157.5,286.5C 157.5,287.5 157.5,288.5 157.5,289.5C 154.941,289.802 152.607,289.468 150.5,288.5C 151.833,288.5 153.167,288.5 154.5,288.5C 156.048,288.179 156.715,287.179 156.5,285.5 Z"/></g>
<g><path style="opacity:0.019" fill="#252525" d="M 289.5,287.5 C 294.5,287.5 299.5,287.5 304.5,287.5C 304.706,291.898 304.373,296.232 303.5,300.5C 303.5,302.167 303.5,303.833 303.5,305.5C 302.698,306.952 302.198,308.618 302,310.5C 301.023,311.774 300.189,311.774 299.5,310.5C 300.776,308.438 301.61,306.104 302,303.5C 302.499,298.845 302.666,294.179 302.5,289.5C 298.167,289.5 293.833,289.5 289.5,289.5C 289.5,288.833 289.5,288.167 289.5,287.5 Z"/></g>
<g><path style="opacity:0.803" fill="#afafaf" d="M 343.5,281.5 C 344.167,281.833 344.833,282.167 345.5,282.5C 347.027,282.427 348.027,283.094 348.5,284.5C 348.5,289.5 348.5,294.5 348.5,299.5C 348.167,299.5 347.833,299.5 347.5,299.5C 347.666,294.489 347.499,289.489 347,284.5C 345.271,284.026 344.105,283.026 343.5,281.5 Z"/></g>
<g><path style="opacity:0.057" fill="#2f2f2f" d="M 220.5,283.5 C 223.237,283.401 225.904,283.735 228.5,284.5C 230.5,284.5 232.5,284.5 234.5,284.5C 233.728,288.452 233.395,292.452 233.5,296.5C 232.167,298.5 230.833,300.5 229.5,302.5C 229.721,299.608 230.554,296.941 232,294.5C 232.667,291.833 232.667,289.167 232,286.5C 228.906,285.401 225.74,284.901 222.5,285C 221.578,287.294 220.578,289.461 219.5,291.5C 219.575,288.794 219.908,286.127 220.5,283.5 Z"/></g>
<g><path style="opacity:0.694" fill="#7e7e7e" d="M 159.5,287.5 C 159.833,287.5 160.167,287.5 160.5,287.5C 160.5,288.5 160.5,289.5 160.5,290.5C 161.5,290.5 162.5,290.5 163.5,290.5C 164.167,291.167 164.833,291.833 165.5,292.5C 163.139,292.326 160.806,291.993 158.5,291.5C 158.232,289.901 158.566,288.568 159.5,287.5 Z"/></g>
<g><path style="opacity:0.118" fill="#2d2d2d" d="M 338.5,286.5 C 339.167,286.5 339.833,286.5 340.5,286.5C 341.209,287.404 342.209,287.737 343.5,287.5C 343.632,290.57 343.299,293.57 342.5,296.5C 342.167,296.5 341.833,296.5 341.5,296.5C 341.433,294.599 341.767,292.766 342.5,291C 341.396,289.285 340.062,287.785 338.5,286.5 Z"/></g>
<g><path style="opacity:0.008" fill="#232323" d="M 139.5,290.5 C 141.38,290.229 142.713,290.896 143.5,292.5C 141.62,292.771 140.287,292.104 139.5,290.5 Z"/></g>
<g><path style="opacity:0.067" fill="#2c2c2c" d="M 163.5,290.5 C 166.854,290.747 169.854,291.747 172.5,293.5C 171.041,293.567 169.708,293.234 168.5,292.5C 167.5,292.5 166.5,292.5 165.5,292.5C 164.833,291.833 164.167,291.167 163.5,290.5 Z"/></g>
<g><path style="opacity:0.247" fill="#363636" d="M 188.5,280.5 C 187.462,284.913 186.128,289.247 184.5,293.5C 186.184,294.15 187.517,295.15 188.5,296.5C 187.167,296.5 185.833,296.5 184.5,296.5C 183.853,295.726 183.52,294.726 183.5,293.5C 183.912,288.51 185.579,284.176 188.5,280.5 Z"/></g>
<g><path style="opacity:0.161" fill="#222222" d="M 198.5,288.5 C 198.5,289.167 198.5,289.833 198.5,290.5C 197.935,292.42 196.935,294.087 195.5,295.5C 195.464,292.539 196.464,290.206 198.5,288.5 Z"/></g>
<g><path style="opacity:0.237" fill="#444444" d="M 214.5,301.5 C 209.306,301.259 204.306,300.593 199.5,299.5C 198.909,298.849 198.243,298.182 197.5,297.5C 198.986,295.698 199.986,293.698 200.5,291.5C 201.059,287.624 201.725,283.791 202.5,280C 207.482,280.323 212.482,280.823 217.5,281.5C 217.934,288.404 216.934,295.071 214.5,301.5 Z M 203.5,280.5 C 207.618,281.731 211.785,282.731 216,283.5C 216.004,287.483 215.671,291.483 215,295.5C 214.313,297.555 213.146,299.221 211.5,300.5C 207.349,299.863 203.349,298.697 199.5,297C 200.893,295.829 201.727,294.329 202,292.5C 202.501,288.49 203.001,284.49 203.5,280.5 Z"/></g>
<g><path style="opacity:0.282" fill="#525252" d="M 236.5,286.5 C 241.305,285.513 246.305,285.179 251.5,285.5C 251.247,289.04 250.581,292.373 249.5,295.5C 249.167,295.5 248.833,295.5 248.5,295.5C 248.444,293.02 248.778,290.354 249.5,287.5C 245.881,286.756 242.215,286.423 238.5,286.5C 237.833,286.5 237.167,286.5 236.5,286.5 Z"/></g>
<g><path style="opacity:0.953" fill="#d1d1d1" d="M 321.5,286.5 C 321.724,294.389 321.058,302.056 319.5,309.5C 319.869,307.007 319.203,306.34 317.5,307.5C 318.219,305.236 318.552,302.903 318.5,300.5C 318.5,298.833 318.5,297.167 318.5,295.5C 319.473,293.052 319.806,290.385 319.5,287.5C 318.167,287.5 316.833,287.5 315.5,287.5C 316.988,285.155 318.988,284.821 321.5,286.5 Z"/></g>
<g><path style="opacity:0.608" fill="#a1a1a1" d="M 168.5,292.5 C 169.708,293.234 171.041,293.567 172.5,293.5C 173.5,293.5 174.5,293.5 175.5,293.5C 175.5,293.833 175.5,294.167 175.5,294.5C 172.612,295.01 170.279,294.344 168.5,292.5 Z"/></g>
<g><path style="opacity:0.759" fill="#b9b9b9" d="M 304.5,287.5 C 305.167,287.5 305.833,287.5 306.5,287.5C 306.5,289.167 306.5,290.833 306.5,292.5C 306.5,295.5 306.5,298.5 306.5,301.5C 306.167,301.5 305.833,301.5 305.5,301.5C 305.591,299.302 304.925,298.969 303.5,300.5C 304.373,296.232 304.706,291.898 304.5,287.5 Z"/></g>
<g><path style="opacity:0.38" fill="#454545" d="M 181.5,290.5 C 181.167,291.833 180.833,293.167 180.5,294.5C 178.95,295.72 177.284,295.72 175.5,294.5C 175.5,294.167 175.5,293.833 175.5,293.5C 176.833,293.5 178.167,293.5 179.5,293.5C 179.285,291.821 179.952,290.821 181.5,290.5 Z"/></g>
<g><path style="opacity:0.082" fill="#212121" d="M 348.5,284.5 C 349.993,285.312 350.66,286.645 350.5,288.5C 350.044,292.678 349.377,296.678 348.5,300.5C 348.5,300.167 348.5,299.833 348.5,299.5C 348.5,294.5 348.5,289.5 348.5,284.5 Z"/></g>
<g><path style="opacity:0.822" fill="#a6a6a6" d="M 271.5,287.5 C 272.754,289.357 272.754,291.357 271.5,293.5C 271.97,294.463 272.637,294.463 273.5,293.5C 272.656,297.099 272.323,300.766 272.5,304.5C 272.5,305.833 272.5,307.167 272.5,308.5C 272.5,308.833 272.5,309.167 272.5,309.5C 271.833,305.5 271.167,301.5 270.5,297.5C 270.616,294.14 270.949,290.807 271.5,287.5 Z"/></g>
<g><path style="opacity:0.202" fill="#303030" d="M 285.5,289.5 C 286.167,290.5 286.833,291.5 287.5,292.5C 287.5,298.167 287.5,303.833 287.5,309.5C 282.568,310.434 277.568,310.434 272.5,309.5C 272.5,309.167 272.5,308.833 272.5,308.5C 276.818,308.697 280.985,308.697 285,308.5C 285.5,302.175 285.666,295.842 285.5,289.5 Z"/></g>
<g><path style="opacity:0.706" fill="#8f8f8f" d="M 286.5,287.5 C 287.5,287.5 288.5,287.5 289.5,287.5C 289.5,288.167 289.5,288.833 289.5,289.5C 290.715,296.449 290.715,303.449 289.5,310.5C 288.833,310.167 288.167,309.833 287.5,309.5C 287.5,303.833 287.5,298.167 287.5,292.5C 287.634,290.708 287.301,289.042 286.5,287.5 Z"/></g>
<g><path style="opacity:0.031" fill="#232323" d="M 336.5,286.5 C 336.666,291.179 336.499,295.845 336,300.5C 335.768,301.737 335.268,302.737 334.5,303.5C 334.321,297.596 334.988,291.929 336.5,286.5 Z"/></g>
<g><path style="opacity:0.342" fill="#4f4f4f" d="M 236.5,290.5 C 236.5,291.167 236.5,291.833 236.5,292.5C 236.196,295.522 235.696,298.522 235,301.5C 234.617,302.056 234.117,302.389 233.5,302.5C 233.5,301.833 233.5,301.167 233.5,300.5C 234.319,297.695 234.819,294.695 235,291.5C 235.383,290.944 235.883,290.611 236.5,290.5 Z"/></g>
<g><path style="opacity:0.447" fill="#656565" d="M 184.5,297.5 C 184.5,297.167 184.5,296.833 184.5,296.5C 185.833,296.5 187.167,296.5 188.5,296.5C 190.833,296.5 193.167,296.5 195.5,296.5C 195.179,298.048 194.179,298.715 192.5,298.5C 189.946,297.612 187.279,297.279 184.5,297.5 Z"/></g>
<g><path style="opacity:0.839" fill="#cecece" d="M 198.5,290.5 C 198.833,290.5 199.167,290.5 199.5,290.5C 199.5,291.167 199.833,291.5 200.5,291.5C 199.986,293.698 198.986,295.698 197.5,297.5C 198.243,298.182 198.909,298.849 199.5,299.5C 197.069,300.315 194.736,299.982 192.5,298.5C 194.179,298.715 195.179,298.048 195.5,296.5C 195.5,296.167 195.5,295.833 195.5,295.5C 196.935,294.087 197.935,292.42 198.5,290.5 Z"/></g>
<g><path style="opacity:0.062" fill="#141414" d="M 308.5,288.5 C 308.638,293.414 307.972,298.081 306.5,302.5C 306.5,302.167 306.5,301.833 306.5,301.5C 306.5,298.5 306.5,295.5 306.5,292.5C 307.167,291.167 307.833,289.833 308.5,288.5 Z"/></g>
<g><path style="opacity:0.608" fill="#8f8f8f" d="M 171.5,298.5 C 174.33,298.963 176.997,299.629 179.5,300.5C 178.5,300.5 177.5,300.5 176.5,300.5C 175.167,300.5 173.833,300.5 172.5,300.5C 172.167,299.833 171.833,299.167 171.5,298.5 Z"/></g>
<g><path style="opacity:0.741" fill="#aeaeae" d="M 233.5,296.5 C 232.646,298.035 232.646,299.368 233.5,300.5C 233.5,301.167 233.5,301.833 233.5,302.5C 233.5,303.167 233.5,303.833 233.5,304.5C 232.85,304.196 232.183,303.863 231.5,303.5C 229.546,306.047 227.879,306.047 226.5,303.5C 228.196,305.129 229.196,304.796 229.5,302.5C 230.833,300.5 232.167,298.5 233.5,296.5 Z"/></g>
<g><path style="opacity:0.014" fill="#171717" d="M 248.5,299.5 C 248.567,300.959 248.234,302.292 247.5,303.5C 247.167,303.5 246.833,303.5 246.5,303.5C 246.157,301.517 246.824,300.183 248.5,299.5 Z"/></g>
<g><path style="opacity:0.021" fill="#161616" d="M 285.5,289.5 C 282.167,289.5 278.833,289.5 275.5,289.5C 274.412,294.61 273.412,299.61 272.5,304.5C 272.323,300.766 272.656,297.099 273.5,293.5C 273.5,292.833 273.5,292.167 273.5,291.5C 274.404,290.791 274.737,289.791 274.5,288.5C 278.371,288.185 282.038,288.518 285.5,289.5 Z"/></g>
<g><path style="opacity:0.329" fill="#3d3d3d" d="M 176.5,300.5 C 177.5,300.5 178.5,300.5 179.5,300.5C 182.477,300.902 185.143,301.902 187.5,303.5C 183.508,303.236 179.841,302.236 176.5,300.5 Z"/></g>
<g><path style="opacity:0.765" fill="#b2b2b2" d="M 248.5,295.5 C 248.833,295.5 249.167,295.5 249.5,295.5C 249.263,296.791 249.596,297.791 250.5,298.5C 250.795,300.735 250.461,302.735 249.5,304.5C 249.158,303.662 248.492,303.328 247.5,303.5C 248.234,302.292 248.567,300.959 248.5,299.5C 248.5,298.167 248.5,296.833 248.5,295.5 Z"/></g>
<g><path style="opacity:0.122" fill="#2e2e2e" d="M 271.5,287.5 C 270.949,290.807 270.616,294.14 270.5,297.5C 270.5,298.5 270.5,299.5 270.5,300.5C 269.833,301.833 269.167,303.167 268.5,304.5C 268.913,299.101 268.913,293.767 268.5,288.5C 264.251,288.652 259.918,288.818 255.5,289C 252.971,294.513 251.971,300.18 252.5,306C 254.382,306.198 256.048,306.698 257.5,307.5C 254.833,307.5 252.167,307.5 249.5,307.5C 249.5,306.5 249.5,305.5 249.5,304.5C 250.461,302.735 250.795,300.735 250.5,298.5C 251.873,295.032 252.873,291.366 253.5,287.5C 259.5,287.5 265.5,287.5 271.5,287.5 Z"/></g>
<g><path style="opacity:0.373" fill="#6f6f6f" d="M 270.5,300.5 C 270.296,303.518 269.963,306.518 269.5,309.5C 262.654,309.182 255.987,308.515 249.5,307.5C 252.167,307.5 254.833,307.5 257.5,307.5C 261.167,307.5 264.833,307.5 268.5,307.5C 268.5,306.5 268.5,305.5 268.5,304.5C 269.167,303.167 269.833,301.833 270.5,300.5 Z"/></g>
<g><path style="opacity:0.347" fill="#4d4d4d" d="M 219.5,295.5 C 219.5,297.167 219.5,298.833 219.5,300.5C 222.582,302.181 225.915,302.848 229.5,302.5C 229.196,304.796 228.196,305.129 226.5,303.5C 223.5,303.5 220.5,303.5 217.5,303.5C 216.964,300.302 217.631,297.635 219.5,295.5 Z"/></g>
<g><path style="opacity:0.322" fill="#484848" d="M 192.5,303.5 C 195.35,303.636 198.183,303.969 201,304.5C 202.681,304.608 203.848,305.275 204.5,306.5C 200.076,306.728 196.076,305.728 192.5,303.5 Z"/></g>
<g><path style="opacity:0.346" fill="#474747" d="M 347.5,299.5 C 347.833,299.5 348.167,299.5 348.5,299.5C 348.5,299.833 348.5,300.167 348.5,300.5C 348.874,304.647 347.874,308.314 345.5,311.5C 345.956,307.336 346.622,303.336 347.5,299.5 Z"/></g>
<g><path style="opacity:0.296" fill="#4a4a4a" d="M 246.5,303.5 C 246.833,303.5 247.167,303.5 247.5,303.5C 247.5,304.5 247.5,305.5 247.5,306.5C 243.818,306.665 240.152,306.499 236.5,306C 235.944,305.617 235.611,305.117 235.5,304.5C 235.435,304.062 235.601,303.728 236,303.5C 239.131,304.206 242.298,304.873 245.5,305.5C 246.298,305.043 246.631,304.376 246.5,303.5 Z"/></g>
<g><path style="opacity:0.298" fill="#3e3e3e" d="M 171.5,298.5 C 171.833,299.167 172.167,299.833 172.5,300.5C 169.399,300.308 166.399,299.642 163.5,298.5C 162.722,302.429 162.389,306.263 162.5,310C 163.094,310.464 163.761,310.631 164.5,310.5C 163.791,311.404 162.791,311.737 161.5,311.5C 161.5,306.833 161.5,302.167 161.5,297.5C 164.807,298.051 168.14,298.384 171.5,298.5 Z"/></g>
<g><path style="opacity:0.565" fill="#8b8b8b" d="M 170.5,307.5 C 175.5,307.5 180.5,307.5 185.5,307.5C 185.5,308.167 185.5,308.833 185.5,309.5C 180.198,308.213 174.864,308.213 169.5,309.5C 169.833,308.833 170.167,308.167 170.5,307.5 Z"/></g>
<g><path style="opacity:0.414" fill="#545454" d="M 204.5,306.5 C 210.5,306.833 216.5,307.167 222.5,307.5C 222.64,309.124 221.973,310.29 220.5,311C 217.832,311.567 215.166,312.067 212.5,312.5C 214.696,311.188 217.03,310.021 219.5,309C 214.294,308.563 209.294,307.73 204.5,306.5 Z"/></g>
<g><path style="opacity:0.357" fill="#636363" d="M 305.5,301.5 C 305.833,301.5 306.167,301.5 306.5,301.5C 306.5,301.833 306.5,302.167 306.5,302.5C 306.425,305.206 306.092,307.873 305.5,310.5C 305.5,311.167 305.5,311.833 305.5,312.5C 304.213,308.935 304.213,305.268 305.5,301.5 Z"/></g>
<g><path style="opacity:0.137" fill="#252525" d="M 340.5,304.5 C 340.5,306.167 340.5,307.833 340.5,309.5C 339.833,309.833 339.167,310.167 338.5,310.5C 338.595,308.214 339.262,306.214 340.5,304.5 Z"/></g>
<g><path style="opacity:0.804" fill="#878787" d="M 341.5,296.5 C 341.833,296.5 342.167,296.5 342.5,296.5C 342.665,299.85 342.498,303.183 342,306.5C 341.768,307.737 341.268,308.737 340.5,309.5C 340.5,307.833 340.5,306.167 340.5,304.5C 340.575,301.794 340.908,299.127 341.5,296.5 Z"/></g>
<g><path style="opacity:0.255" fill="#303030" d="M 170.5,307.5 C 170.167,308.167 169.833,308.833 169.5,309.5C 167.708,309.366 166.042,309.699 164.5,310.5C 165.895,308.621 167.895,307.621 170.5,307.5 Z"/></g>
<g><path style="opacity:0.271" fill="#3c3c3c" d="M 185.5,307.5 C 188.089,308.419 190.089,310.086 191.5,312.5C 189.5,311.5 187.5,310.5 185.5,309.5C 185.5,308.833 185.5,308.167 185.5,307.5 Z"/></g>
<g><path style="opacity:0.478" fill="#818181" d="M 333.5,304.5 C 333.5,306.833 333.5,309.167 333.5,311.5C 334.833,311.5 336.167,311.5 337.5,311.5C 336.432,312.434 335.099,312.768 333.5,312.5C 332.167,309.833 332.167,307.167 333.5,304.5 Z"/></g>
<g><path style="opacity:0.498" fill="#8f8f8f" d="M 245.5,312.5 C 242.904,311.735 240.237,311.401 237.5,311.5C 236.833,311.5 236.5,311.833 236.5,312.5C 236.5,312.833 236.5,313.167 236.5,313.5C 235.596,312.791 235.263,311.791 235.5,310.5C 238.518,310.335 241.518,310.502 244.5,311C 245.056,311.383 245.389,311.883 245.5,312.5 Z"/></g>
<g><path style="opacity:0.067" fill="#2f2f2f" d="M 333.5,303.5 C 333.833,303.5 334.167,303.5 334.5,303.5C 334.5,305.833 334.5,308.167 334.5,310.5C 335.5,310.5 336.5,310.5 337.5,310.5C 337.5,310.833 337.5,311.167 337.5,311.5C 336.167,311.5 334.833,311.5 333.5,311.5C 333.5,309.167 333.5,306.833 333.5,304.5C 333.5,304.167 333.5,303.833 333.5,303.5 Z"/></g>
<g><path style="opacity:0.082" fill="#2f2f2f" d="M 237.5,311.5 C 240.237,311.401 242.904,311.735 245.5,312.5C 249.931,312.231 254.265,312.564 258.5,313.5C 258.5,313.833 258.5,314.167 258.5,314.5C 252.289,314.196 246.123,313.529 240,312.5C 239.5,312.833 239,313.167 238.5,313.5C 239.95,314.85 240.617,316.516 240.5,318.5C 239.197,316.858 237.864,315.191 236.5,313.5C 236.5,313.167 236.5,312.833 236.5,312.5C 237.167,312.5 237.5,312.167 237.5,311.5 Z"/></g>
<g><path style="opacity:0.78" fill="#909090" d="M 303.5,305.5 C 303.756,307.792 303.423,309.959 302.5,312C 297.997,312.111 293.664,311.611 289.5,310.5C 292.833,310.5 296.167,310.5 299.5,310.5C 300.189,311.774 301.023,311.774 302,310.5C 302.198,308.618 302.698,306.952 303.5,305.5 Z"/></g>
<g><path style="opacity:0.205" fill="#2d2d2d" d="M 318.5,300.5 C 318.552,302.903 318.219,305.236 317.5,307.5C 317.5,309.167 317.5,310.833 317.5,312.5C 313.5,312.5 309.5,312.5 305.5,312.5C 305.5,311.833 305.5,311.167 305.5,310.5C 308.844,311.599 312.177,311.265 315.5,309.5C 316.23,306.891 316.73,304.224 317,301.5C 317.383,300.944 317.883,300.611 318.5,300.5 Z"/></g>
<g><path style="opacity:0.165" fill="#404040" d="M 321.5,286.5 C 321.833,286.5 322.167,286.5 322.5,286.5C 322.5,287.167 322.5,287.833 322.5,288.5C 322.597,296.191 322.263,303.858 321.5,311.5C 323.167,311.5 324.833,311.5 326.5,311.5C 327.833,311.5 329.167,311.5 330.5,311.5C 330.5,310.167 330.5,308.833 330.5,307.5C 330.5,305.5 330.5,303.5 330.5,301.5C 330.833,301.5 331.167,301.5 331.5,301.5C 331.5,305.167 331.5,308.833 331.5,312.5C 327.5,312.5 323.5,312.5 319.5,312.5C 319.5,311.5 319.5,310.5 319.5,309.5C 321.058,302.056 321.724,294.389 321.5,286.5 Z"/></g>
<g><path style="opacity:0.014" fill="#040404" d="M 330.5,307.5 C 330.5,308.833 330.5,310.167 330.5,311.5C 329.167,311.5 327.833,311.5 326.5,311.5C 328.167,310.5 329.5,309.167 330.5,307.5 Z"/></g>
<g><path style="opacity:0.811" fill="#c4c4c4" d="M 319.5,309.5 C 319.5,310.5 319.5,311.5 319.5,312.5C 323.5,312.5 327.5,312.5 331.5,312.5C 327.366,313.485 323.032,313.818 318.5,313.5C 318.232,311.901 318.566,310.568 319.5,309.5 Z"/></g>
<g><path style="opacity:0.11" fill="#323232" d="M 143.5,292.5 C 144.833,292.5 146.167,292.5 147.5,292.5C 148.167,299.833 148.833,307.167 149.5,314.5C 150.15,316.435 150.483,318.435 150.5,320.5C 147.693,311.857 146.36,302.857 146.5,293.5C 145.209,293.737 144.209,293.404 143.5,292.5 Z"/></g>
<g><path style="opacity:0.129" fill="#3a3a3a" d="M 191.5,314.5 C 193.379,315.895 194.379,317.895 194.5,320.5C 192.621,319.105 191.621,317.105 191.5,314.5 Z"/></g>
<g><path style="opacity:0.278" fill="#444444" d="M 212.5,312.5 C 211.103,314.379 209.437,316.046 207.5,317.5C 207.167,317.5 206.833,317.5 206.5,317.5C 207.638,314.914 209.638,313.247 212.5,312.5 Z"/></g>
<g><path style="opacity:0.188" fill="#272727" d="M 265.5,314.5 C 268.248,314.402 268.914,315.402 267.5,317.5C 266.833,317.833 266.167,318.167 265.5,318.5C 266.405,317.036 266.405,315.702 265.5,314.5 Z"/></g>
<g><path style="opacity:0.584" fill="#949494" d="M 258.5,314.5 C 258.5,314.167 258.5,313.833 258.5,313.5C 262.167,313.5 265.833,313.5 269.5,313.5C 269.843,315.483 269.176,316.817 267.5,317.5C 268.914,315.402 268.248,314.402 265.5,314.5C 263.167,314.5 260.833,314.5 258.5,314.5 Z"/></g>
<g><path style="opacity:0.431" fill="#858585" d="M 284.5,316.5 C 289.657,315.789 294.99,315.789 300.5,316.5C 302.081,321.623 302.748,326.956 302.5,332.5C 301.681,329.695 301.181,326.695 301,323.5C 300.617,322.944 300.117,322.611 299.5,322.5C 299.034,320.799 299.034,319.299 299.5,318C 296.518,317.502 293.518,317.335 290.5,317.5C 288.735,316.539 286.735,316.205 284.5,316.5 Z"/></g>
<g><path style="opacity:0.216" fill="#434343" d="M 345.5,312.5 C 344.856,315.144 343.189,316.811 340.5,317.5C 340.5,316.833 340.5,316.167 340.5,315.5C 342.354,314.759 344.021,313.759 345.5,312.5 Z"/></g>
<g><path style="opacity:0.753" fill="#a8a8a8" d="M 149.5,314.5 C 150.117,314.611 150.617,314.944 151,315.5C 151.498,318.817 151.665,322.15 151.5,325.5C 151.167,325.5 150.833,325.5 150.5,325.5C 150.5,323.833 150.5,322.167 150.5,320.5C 150.483,318.435 150.15,316.435 149.5,314.5 Z"/></g>
<g><path style="opacity:0.639" fill="#707070" d="M 226.5,316.5 C 226.5,316.833 226.5,317.167 226.5,317.5C 225.127,317.343 223.793,317.51 222.5,318C 218.905,320.597 215.072,322.763 211,324.5C 207.078,323.859 205.578,321.525 206.5,317.5C 206.833,317.5 207.167,317.5 207.5,317.5C 206.83,320.59 207.997,322.257 211,322.5C 213.915,320.569 217.082,318.902 220.5,317.5C 222.396,316.534 224.396,316.201 226.5,316.5 Z"/></g>
<g><path style="opacity:0.992" fill="#c0c0c0" d="M 226.5,317.5 C 226.5,317.167 226.5,316.833 226.5,316.5C 227.873,316.343 229.207,316.51 230.5,317C 230.673,319.827 230.34,322.661 229.5,325.5C 230.172,322.058 229.172,319.391 226.5,317.5 Z"/></g>
<g><path style="opacity:0.063" fill="#292929" d="M 284.5,316.5 C 286.735,316.205 288.735,316.539 290.5,317.5C 287.789,317.185 285.456,317.852 283.5,319.5C 283.5,318.833 283.5,318.167 283.5,317.5C 283.5,316.833 283.833,316.5 284.5,316.5 Z"/></g>
<g><path style="opacity:0.18" fill="#353535" d="M 336.5,317.5 C 334.708,318.309 332.708,318.809 330.5,319C 328.283,320.723 325.95,322.223 323.5,323.5C 324.909,321.583 326.576,319.75 328.5,318C 331.146,317.503 333.813,317.336 336.5,317.5 Z"/></g>
<g><path style="opacity:0.718" fill="#a8a8a8" d="M 283.5,317.5 C 283.5,318.167 283.5,318.833 283.5,319.5C 283.5,319.833 283.5,320.167 283.5,320.5C 281.833,320.5 280.167,320.5 278.5,320.5C 280.294,319.767 281.961,318.767 283.5,317.5 Z"/></g>
<g><path style="opacity:0.337" fill="#4b4b4b" d="M 312.5,317.5 C 313.5,317.5 314.5,317.5 315.5,317.5C 315.5,318.5 315.5,319.5 315.5,320.5C 314.5,320.5 313.5,320.5 312.5,320.5C 312.5,319.5 312.5,318.5 312.5,317.5 Z"/></g>
<g><path style="opacity:0.104" fill="#2e2e2e" d="M 181.5,323.5 C 181.5,324.167 181.5,324.833 181.5,325.5C 179.814,323.984 177.981,322.65 176,321.5C 173.156,322.408 170.656,323.741 168.5,325.5C 172.044,319.925 176.378,319.259 181.5,323.5 Z"/></g>
<g><path style="opacity:0.267" fill="#414141" d="M 265.5,318.5 C 264.581,321.089 262.914,323.089 260.5,324.5C 261.419,321.911 263.086,319.911 265.5,318.5 Z"/></g>
<g><path style="opacity:0.208" fill="#484848" d="M 240.5,318.5 C 242.806,322.085 244.139,326.085 244.5,330.5C 244.167,330.5 243.833,330.5 243.5,330.5C 241.973,326.733 240.973,322.733 240.5,318.5 Z"/></g>
<g><path style="opacity:0.251" fill="#404040" d="M 323.5,323.5 C 321.388,326.941 318.388,329.275 314.5,330.5C 316.922,327.409 319.922,325.076 323.5,323.5 Z"/></g>
<g><path style="opacity:0.275" fill="#3d3d3d" d="M 226.5,317.5 C 229.172,319.391 230.172,322.058 229.5,325.5C 227.434,327.717 225.1,329.717 222.5,331.5C 221.833,331.833 221.167,332.167 220.5,332.5C 222.801,329.697 225.301,327.03 228,324.5C 228.6,321.905 228.1,319.571 226.5,317.5 Z"/></g>
<g><path style="opacity:0.035" fill="#1e1e1e" d="M 299.5,322.5 C 300.117,322.611 300.617,322.944 301,323.5C 301.181,326.695 301.681,329.695 302.5,332.5C 302.5,332.833 302.5,333.167 302.5,333.5C 302.5,335.833 302.5,338.167 302.5,340.5C 301.024,334.697 300.024,328.697 299.5,322.5 Z"/></g>
<g><path style="opacity:0.906" fill="#ababab" d="M 222.5,331.5 C 220.73,333 219.063,334.667 217.5,336.5C 217.5,335.833 217.5,335.167 217.5,334.5C 217.973,333.094 218.973,332.427 220.5,332.5C 221.167,332.167 221.833,331.833 222.5,331.5 Z"/></g>
<g><path style="opacity:0.308" fill="#404040" d="M 150.5,325.5 C 150.833,325.5 151.167,325.5 151.5,325.5C 152.445,330.405 152.779,335.405 152.5,340.5C 153.219,342.764 153.552,345.097 153.5,347.5C 151.665,340.855 150.332,334.021 149.5,327C 150.056,326.617 150.389,326.117 150.5,325.5 Z"/></g>
<g><path style="opacity:0.31" fill="#3a3a3a" d="M 259.5,325.5 C 258.715,329.067 257.382,332.4 255.5,335.5C 255.167,335.5 254.833,335.5 254.5,335.5C 255.354,331.678 257.021,328.344 259.5,325.5 Z"/></g>
<g><path style="opacity:0.318" fill="#424242" d="M 315.5,332.5 C 317.632,332.554 318.965,333.554 319.5,335.5C 317.545,335.201 316.211,334.201 315.5,332.5 Z"/></g>
<g><path style="opacity:0.314" fill="#5d5d5d" d="M 232.5,345.5 C 232.806,342.615 232.473,339.948 231.5,337.5C 231.103,336.475 230.437,336.308 229.5,337C 226.321,340.078 222.988,342.912 219.5,345.5C 220.048,343.606 221.048,341.94 222.5,340.5C 224.918,339.585 226.918,338.085 228.5,336C 230.025,334.991 231.692,334.491 233.5,334.5C 233.815,338.371 233.482,342.038 232.5,345.5 Z"/></g>
<g><path style="opacity:0.035" fill="#343434" d="M 319.5,335.5 C 322.089,335.461 324.089,336.461 325.5,338.5C 323.033,338.245 321.033,337.245 319.5,335.5 Z"/></g>
<g><path style="opacity:0.439" fill="#525252" d="M 217.5,334.5 C 217.5,335.167 217.5,335.833 217.5,336.5C 211.286,339.715 207.286,344.715 205.5,351.5C 204.833,352.167 204.167,352.833 203.5,353.5C 203.5,353.167 203.5,352.833 203.5,352.5C 205.528,344.47 210.194,338.47 217.5,334.5 Z"/></g>
<g><path style="opacity:0.271" fill="#3f3f3f" d="M 326.5,338.5 C 328.403,338.796 330.07,339.463 331.5,340.5C 329.219,340.923 327.552,340.256 326.5,338.5 Z"/></g>
<g><path style="opacity:0.433" fill="#4f4f4f" d="M 278.5,320.5 C 280.167,320.5 281.833,320.5 283.5,320.5C 277.426,322.134 272.926,325.801 270,331.5C 267.938,336.446 267.105,341.446 267.5,346.5C 266.235,345.486 265.569,343.986 265.5,342C 266.478,332.579 270.812,325.413 278.5,320.5 Z"/></g>
<g><path style="opacity:0.342" fill="#4b4b4b" d="M 168.5,325.5 C 165.226,334.187 164.56,343.187 166.5,352.5C 166.5,352.833 166.5,353.167 166.5,353.5C 166.167,353.5 165.833,353.5 165.5,353.5C 164.201,345.558 164.201,337.558 165.5,329.5C 166.15,327.816 167.15,326.483 168.5,325.5 Z"/></g>
<g><path style="opacity:0.643" fill="#787878" d="M 243.5,330.5 C 243.833,330.5 244.167,330.5 244.5,330.5C 245.792,339.503 245.792,348.503 244.5,357.5C 243.833,357.833 243.167,358.167 242.5,358.5C 243.447,349.22 243.78,339.886 243.5,330.5 Z"/></g>
<g><path style="opacity:0.031" fill="#3a3a3a" d="M 289.5,354.5 C 290.3,352.318 291.8,350.651 294,349.5C 294.896,346.975 294.396,344.808 292.5,343C 287.738,341.745 283.738,342.912 280.5,346.5C 281.259,344.569 282.593,343.069 284.5,342C 288.909,340.738 292.743,341.572 296,344.5C 296.515,349.5 294.348,352.833 289.5,354.5 Z"/></g>
<g><path style="opacity:0.059" fill="#414141" d="M 331.5,340.5 C 335.856,341.003 339.189,343.003 341.5,346.5C 338.039,344.448 334.706,342.448 331.5,340.5 Z"/></g>
<g><path style="opacity:0.714" fill="#999999" d="M 152.5,340.5 C 153.117,340.611 153.617,340.944 154,341.5C 154.498,344.817 154.665,348.15 154.5,351.5C 154.167,351.5 153.833,351.5 153.5,351.5C 153.5,350.167 153.5,348.833 153.5,347.5C 153.552,345.097 153.219,342.764 152.5,340.5 Z"/></g>
<g><path style="opacity:0.571" fill="#737373" d="M 181.5,323.5 C 182.616,327.287 183.282,331.287 183.5,335.5C 182.677,343.479 182.343,351.479 182.5,359.5C 182.167,359.5 181.833,359.5 181.5,359.5C 181.207,348.35 181.207,337.017 181.5,325.5C 181.5,324.833 181.5,324.167 181.5,323.5 Z"/></g>
<g><path style="opacity:0.188" fill="#333333" d="M 231.5,337.5 C 232.473,339.948 232.806,342.615 232.5,345.5C 230.772,347.226 228.772,348.559 226.5,349.5C 227.3,347.318 228.8,345.651 231,344.5C 231.497,342.19 231.663,339.857 231.5,337.5 Z"/></g>
<g><path style="opacity:0.86" fill="#b7b7b7" d="M 254.5,335.5 C 254.833,335.5 255.167,335.5 255.5,335.5C 254.385,341.519 254.385,347.519 255.5,353.5C 253.967,351.366 253.3,348.866 253.5,346C 253.684,343.135 254.018,340.302 254.5,337.5C 254.5,336.833 254.5,336.167 254.5,335.5 Z"/></g>
<g><path style="opacity:0.157" fill="#3c3c3c" d="M 318.5,345.5 C 320.19,345.856 321.19,346.856 321.5,348.5C 319.5,348.5 318.5,347.5 318.5,345.5 Z"/></g>
<g><path style="opacity:0.306" fill="#474747" d="M 280.5,346.5 C 279.738,348.262 278.404,349.262 276.5,349.5C 277.262,347.738 278.596,346.738 280.5,346.5 Z"/></g>
<g><path style="opacity:0.133" fill="#303030" d="M 321.5,348.5 C 323.933,348.273 325.599,349.273 326.5,351.5C 324.566,350.89 322.899,349.89 321.5,348.5 Z"/></g>
<g><path style="opacity:0.165" fill="#313131" d="M 219.5,345.5 C 218.464,347.391 218.464,349.224 219.5,351C 221.506,350.85 223.506,350.35 225.5,349.5C 223.898,351.982 221.565,352.815 218.5,352C 216.98,349.448 217.313,347.282 219.5,345.5 Z"/></g>
<g><path style="opacity:0.243" fill="#474747" d="M 267.5,346.5 C 269.112,350.26 271.779,351.26 275.5,349.5C 275.389,350.117 275.056,350.617 274.5,351C 270.156,352.476 267.822,350.976 267.5,346.5 Z"/></g>
<g><path style="opacity:0.255" fill="#393939" d="M 342.5,347.5 C 343.693,347.97 344.36,348.97 344.5,350.5C 344.48,351.726 344.147,352.726 343.5,353.5C 343.675,351.379 343.341,349.379 342.5,347.5 Z"/></g>
<g><path style="opacity:0.247" fill="#484848" d="M 302.5,333.5 C 303.487,338.305 303.821,343.305 303.5,348.5C 304.423,352.064 304.756,355.731 304.5,359.5C 302.823,353.416 302.156,347.082 302.5,340.5C 302.5,338.167 302.5,335.833 302.5,333.5 Z"/></g>
<g><path style="opacity:0.867" fill="#adadad" d="M 205.5,351.5 C 205.5,353.5 205.5,355.5 205.5,357.5C 205.167,357.5 204.833,357.5 204.5,357.5C 203.566,356.432 203.232,355.099 203.5,353.5C 204.167,352.833 204.833,352.167 205.5,351.5 Z"/></g>
<g><path style="opacity:0.243" fill="#404040" d="M 326.5,351.5 C 331.594,353.564 336.927,354.564 342.5,354.5C 342.038,355.88 341.038,356.547 339.5,356.5C 336.674,356.176 334.174,355.176 332,353.5C 331.667,353.833 331.333,354.167 331,354.5C 329.348,353.601 327.848,352.601 326.5,351.5 Z"/></g>
<g><path style="opacity:0.051" fill="#131313" d="M 203.5,352.5 C 203.5,352.833 203.5,353.167 203.5,353.5C 203.232,355.099 203.566,356.432 204.5,357.5C 204.5,358.167 204.5,358.833 204.5,359.5C 203.007,358.688 202.34,357.355 202.5,355.5C 202.52,354.274 202.853,353.274 203.5,352.5 Z"/></g>
<g><path style="opacity:0.455" fill="#474747" d="M 317.5,345.5 C 317.248,349.977 317.081,354.643 317,359.5C 316.583,360.756 315.75,361.423 314.5,361.5C 315.127,355.552 315.794,349.552 316.5,343.5C 317.298,343.957 317.631,344.624 317.5,345.5 Z"/></g>
<g><path style="opacity:0.396" fill="#3b3b3b" d="M 254.5,337.5 C 254.018,340.302 253.684,343.135 253.5,346C 253.3,348.866 253.967,351.366 255.5,353.5C 255.539,354.583 255.873,355.583 256.5,356.5C 258.461,357.578 260.128,358.911 261.5,360.5C 256.928,359.763 254.095,357.097 253,352.5C 252.333,348.167 252.333,343.833 253,339.5C 253.278,338.584 253.778,337.918 254.5,337.5 Z"/></g>
<g><path style="opacity:0.047" fill="#313131" d="M 289.5,354.5 C 286.753,357.207 283.42,358.873 279.5,359.5C 282.2,356.708 285.534,355.042 289.5,354.5 Z"/></g>
<g><path style="opacity:0.1" fill="#141414" d="M 166.5,352.5 C 167.266,354.684 167.933,357.018 168.5,359.5C 168.058,360.739 167.391,361.739 166.5,362.5C 166.5,359.5 166.5,356.5 166.5,353.5C 166.5,353.167 166.5,352.833 166.5,352.5 Z"/></g>
<g><path style="opacity:0.098" fill="#383838" d="M 194.5,321.5 C 195.603,325.794 196.269,330.294 196.5,335C 195.883,342.492 195.383,349.992 195,357.5C 192.459,362.069 188.625,363.569 183.5,362C 182.244,361.583 181.577,360.75 181.5,359.5C 181.833,359.5 182.167,359.5 182.5,359.5C 185.408,360.569 188.408,360.736 191.5,360C 192.071,358.795 192.738,357.628 193.5,356.5C 194.499,344.852 194.832,333.186 194.5,321.5 Z"/></g>
<g><path style="opacity:0.341" fill="#3d3d3d" d="M 204.5,357.5 C 204.833,357.5 205.167,357.5 205.5,357.5C 205.468,359.619 206.468,360.952 208.5,361.5C 211.625,362.479 214.958,362.813 218.5,362.5C 215.024,363.643 211.358,363.81 207.5,363C 205.937,362.241 204.937,361.074 204.5,359.5C 204.5,358.833 204.5,358.167 204.5,357.5 Z"/></g>
<g><path style="opacity:0.343" fill="#4d4d4d" d="M 219.5,360.5 C 224.944,359.892 229.944,360.558 234.5,362.5C 229.189,361.296 223.856,361.296 218.5,362.5C 218.833,361.833 219.167,361.167 219.5,360.5 Z"/></g>
<g><path style="opacity:0.333" fill="#444444" d="M 244.5,357.5 C 244.631,360.367 243.297,362.033 240.5,362.5C 241.167,361.167 241.833,359.833 242.5,358.5C 243.167,358.167 243.833,357.833 244.5,357.5 Z"/></g>
<g><path style="opacity:0.349" fill="#3c3c3c" d="M 277.5,359.5 C 277.389,360.117 277.056,360.617 276.5,361C 271.263,363.037 266.263,362.87 261.5,360.5C 266.88,360.676 272.213,360.342 277.5,359.5 Z"/></g>
<g><path style="opacity:0.825" fill="#bfbfbf" d="M 165.5,353.5 C 165.833,353.5 166.167,353.5 166.5,353.5C 166.5,356.5 166.5,359.5 166.5,362.5C 163.287,362.81 160.287,362.477 157.5,361.5C 160.167,361.5 162.833,361.5 165.5,361.5C 165.5,358.833 165.5,356.167 165.5,353.5 Z"/></g>
<g><path style="opacity:0.706" fill="#acacac" d="M 219.5,360.5 C 219.167,361.167 218.833,361.833 218.5,362.5C 214.958,362.813 211.625,362.479 208.5,361.5C 212.234,361.677 215.901,361.344 219.5,360.5 Z"/></g>
<g><path style="opacity:0.725" fill="#8b8b8b" d="M 303.5,348.5 C 305.268,352.044 306.102,356.044 306,360.5C 308.719,361.444 311.552,361.777 314.5,361.5C 314.389,362.117 314.056,362.617 313.5,363C 311.167,363.667 308.833,363.667 306.5,363C 305.177,362.184 304.511,361.017 304.5,359.5C 304.756,355.731 304.423,352.064 303.5,348.5 Z"/></g>
<g><path style="opacity:0.439" fill="#3e3e3e" d="M 153.5,351.5 C 153.833,351.5 154.167,351.5 154.5,351.5C 155.319,354.305 155.819,357.305 156,360.5C 156.383,361.056 156.883,361.389 157.5,361.5C 160.287,362.477 163.287,362.81 166.5,362.5C 163.4,364.95 160.066,365.117 156.5,363C 153.987,359.623 152.987,355.79 153.5,351.5 Z"/></g>
</svg>
