<?xml version="1.0" encoding="UTF-8"?>
<!DOCTYPE svg PUBLIC "-//W3C//DTD SVG 1.1//EN" "http://www.w3.org/Graphics/SVG/1.1/DTD/svg11.dtd">
<svg xmlns="http://www.w3.org/2000/svg" version="1.1" width="170px" height="157px" style="shape-rendering:geometricPrecision; text-rendering:geometricPrecision; image-rendering:optimizeQuality; fill-rule:evenodd; clip-rule:evenodd" xmlns:xlink="http://www.w3.org/1999/xlink">
<g><path style="opacity:0.991" fill="#f3f3f3" d="M 103.5,125.5 C 102.726,124.853 101.726,124.52 100.5,124.5C 98.9704,124.64 97.9704,125.307 97.5,126.5C 89.5946,130.31 86.428,136.643 88,145.5C 88.8926,146.081 89.8926,146.415 91,146.5C 94.4534,144.77 97.7867,142.77 101,140.5C 104.789,140.945 106.123,142.945 105,146.5C 98.6685,152.926 91.1685,155.093 82.5,153C 81.3333,151.833 80.1667,150.667 79,149.5C 77.2565,139.73 80.0898,131.563 87.5,125C 81.2551,123.38 74.9217,122.713 68.5,123C 73.4783,132.709 74.645,142.876 72,153.5C 68.7383,154.523 65.405,154.523 62,153.5C 58.7565,153.849 55.5898,154.515 52.5,155.5C 45.835,152.949 44.6683,148.615 49,142.5C 52.9623,138.358 57.2956,134.692 62,131.5C 62.8523,128.967 62.1856,126.967 60,125.5C 56.7876,126.523 53.9543,128.19 51.5,130.5C 47.6834,128.963 47.0167,126.796 49.5,124C 51.6641,123.086 53.6641,121.919 55.5,120.5C 43.534,118.274 31.7007,115.608 20,112.5C 19.5423,115.558 19.8756,118.558 21,121.5C 26.6825,117.628 32.3492,117.628 38,121.5C 41.3364,129.498 42.3364,137.832 41,146.5C 41.2408,153.965 38.2408,155.965 32,152.5C 32.2544,145.513 32.2544,138.513 32,131.5C 29.9121,127.821 27.2455,127.488 24,130.5C 23.1376,132.087 22.4709,133.754 22,135.5C 21.8693,141.563 22.2026,147.563 23,153.5C 21.2298,155.418 19.0631,155.918 16.5,155C 15.0835,152.017 14.2501,148.85 14,145.5C 12.6387,133.472 11.1387,121.472 9.5,109.5C 3.46229,108.467 0.462291,104.8 0.5,98.5C -0.0911341,91.8448 2.40887,86.8448 8,83.5C 9.82326,77.6872 12.3233,72.1872 15.5,67C 2.57913,47.1409 -1.2542,25.6409 4,2.5C 5.66667,-0.166667 7.33333,-0.166667 9,2.5C 13.2594,19.6919 22.0928,34.0252 35.5,45.5C 42.0036,41.2749 49.0036,38.1082 56.5,36C 63.1567,35.0032 69.49,33.0032 75.5,30C 84.2513,28.2958 90.9179,31.1292 95.5,38.5C 105.694,44.6893 115.028,52.0227 123.5,60.5C 138.646,53.8538 151.312,44.0205 161.5,31C 164.025,30.1041 166.192,30.6041 168,32.5C 165.661,55.8362 154.994,74.5028 136,88.5C 135.762,92.8479 136.095,97.1812 137,101.5C 139.38,103.427 140.547,105.927 140.5,109C 139.936,113.551 139.103,118.051 138,122.5C 134.931,125.807 131.098,127.307 126.5,127C 123.5,129.5 120.5,132 117.5,134.5C 123.24,138.137 129.24,141.304 135.5,144C 137.225,150.54 134.892,152.207 128.5,149C 125.166,147.669 122.166,145.835 119.5,143.5C 119.519,146.566 119.352,149.899 119,153.5C 115.904,156.353 113.237,156.02 111,152.5C 110.18,143.81 109.18,135.143 108,126.5C 106.644,125.62 105.144,125.286 103.5,125.5 Z M 6.5,12.5 C 11.9871,24.7867 19.4871,35.7867 29,45.5C 29.6667,47.1667 29.6667,48.8333 29,50.5C 25.9336,53.5664 22.9336,56.5664 20,59.5C 13.8216,55.1624 10.1549,49.1624 9,41.5C 6.85705,31.9582 6.02372,22.2915 6.5,12.5 Z M 76.5,34.5 C 83.5308,33.5167 88.8641,36.0167 92.5,42C 103.15,47.976 112.65,55.476 121,64.5C 127.636,75.9117 131.136,88.245 131.5,101.5C 108.115,103.212 84.7815,102.712 61.5,100C 49.5512,98.0961 37.8846,95.0961 26.5,91C 21.3878,89.278 16.7211,86.778 12.5,83.5C 18.5185,65.2751 30.1852,52.1084 47.5,44C 57.3974,41.1357 67.064,37.969 76.5,34.5 Z M 162.5,36.5 C 163.404,37.209 163.737,38.209 163.5,39.5C 158.769,57.3041 149.269,71.9708 135,83.5C 132.411,77.9092 129.911,72.2425 127.5,66.5C 128.833,64.8333 130.167,63.1667 131.5,61.5C 143.629,55.2847 153.963,46.9514 162.5,36.5 Z M 7.5,90.5 C 11.3834,90.1091 15.05,90.7758 18.5,92.5C 19.3984,97.911 18.2317,102.911 15,107.5C 5.3244,105.203 2.8244,99.5361 7.5,90.5 Z M 23.5,94.5 C 26.7536,96.0291 30.087,97.3624 33.5,98.5C 34.3382,98.8417 34.6716,99.5084 34.5,100.5C 33.1009,103.699 32.1009,107.032 31.5,110.5C 27.1667,109.833 22.8333,109.167 18.5,108.5C 20.1133,104.323 21.1133,99.9892 21.5,95.5C 22.1667,95.1667 22.8333,94.8333 23.5,94.5 Z M 37.5,99.5 C 39.4352,100.15 41.4352,100.483 43.5,100.5C 43.4593,104.616 42.7927,108.616 41.5,112.5C 38.7835,112.322 36.1168,111.822 33.5,111C 34.9114,107.185 36.2447,103.351 37.5,99.5 Z M 54.5,111.5 C 53.596,112.209 53.2627,113.209 53.5,114.5C 52.1667,114.5 50.8333,114.5 49.5,114.5C 47.4951,113.961 45.4951,113.295 43.5,112.5C 45.1277,108.992 46.2944,105.325 47,101.5C 49.8407,102.42 52.674,103.42 55.5,104.5C 54.6258,106.747 54.2924,109.08 54.5,111.5 Z M 57.5,104.5 C 59.5273,104.338 61.5273,104.505 63.5,105C 64.428,105.388 65.0946,106.055 65.5,107C 64.8392,109.464 64.3392,111.964 64,114.5C 63.4806,115.516 62.6473,116.182 61.5,116.5C 59.5,116 57.5,115.5 55.5,115C 56.9707,111.679 57.6374,108.179 57.5,104.5 Z M 72.5,105.5 C 73.8333,106.167 75.1667,106.833 76.5,107.5C 75.7709,111.319 74.6043,114.986 73,118.5C 70.595,117.726 68.095,117.226 65.5,117C 66.9763,113.688 67.8096,110.188 68,106.5C 69.3561,105.62 70.8561,105.286 72.5,105.5 Z M 132.5,121.5 C 130.744,120.448 130.077,118.781 130.5,116.5C 131.021,112.828 131.687,109.162 132.5,105.5C 133.167,105.833 133.833,106.167 134.5,106.5C 135.872,111.868 135.205,116.868 132.5,121.5 Z M 81.5,106.5 C 84.1272,107.092 86.7938,107.425 89.5,107.5C 88.8379,111.466 88.5045,115.466 88.5,119.5C 85.4552,119.492 82.4552,119.159 79.5,118.5C 78.209,118.737 77.209,118.404 76.5,117.5C 77.5,114.167 78.5,110.833 79.5,107.5C 79.8417,106.662 80.5084,106.328 81.5,106.5 Z M 113.5,106.5 C 115.626,106.85 117.959,106.85 120.5,106.5C 120.329,111.196 119.829,115.863 119,120.5C 116.959,121.423 114.792,121.756 112.5,121.5C 112.751,116.493 113.084,111.493 113.5,106.5 Z M 127.5,118.5 C 127.5,119.5 127.5,120.5 127.5,121.5C 125.265,121.795 123.265,121.461 121.5,120.5C 122.795,116.003 123.128,111.503 122.5,107C 124.473,106.505 126.473,106.338 128.5,106.5C 128.763,110.6 128.43,114.6 127.5,118.5 Z M 94.5,120.5 C 93.0222,120.762 91.6888,120.429 90.5,119.5C 91.1679,115.803 91.8346,112.137 92.5,108.5C 94.6074,107.532 96.9407,107.198 99.5,107.5C 99.5,111.833 99.5,116.167 99.5,120.5C 97.8333,120.5 96.1667,120.5 94.5,120.5 Z M 102.5,107.5 C 105.167,107.5 107.833,107.5 110.5,107.5C 110.5,109.833 110.5,112.167 110.5,114.5C 109.631,116.717 109.298,119.05 109.5,121.5C 107.409,121.682 105.409,121.348 103.5,120.5C 102.508,116.217 102.174,111.884 102.5,107.5 Z M 63.5,137.5 C 64.4614,139.265 64.7947,141.265 64.5,143.5C 62.9897,144.836 61.3231,146.003 59.5,147C 58.0563,147.781 56.723,147.614 55.5,146.5C 57.4754,142.86 60.142,139.86 63.5,137.5 Z"/></g>
<g><path style="opacity:0.42" fill="#cbcbcb" d="M 162.5,36.5 C 163.472,35.2486 164.139,35.582 164.5,37.5C 164.457,38.4164 164.124,39.0831 163.5,39.5C 163.737,38.209 163.404,37.209 162.5,36.5 Z"/></g>
<g><path style="opacity:0.463" fill="#c7c7c7" d="M 23.5,94.5 C 22.8333,94.8333 22.1667,95.1667 21.5,95.5C 21.7107,93.5759 22.3774,93.2426 23.5,94.5 Z"/></g>
<g><path style="opacity:0.867" fill="#d1d1d1" d="M 33.5,98.5 C 34.3023,97.1153 34.9689,97.282 35.5,99C 35.4301,99.7648 35.0967,100.265 34.5,100.5C 34.6716,99.5084 34.3382,98.8417 33.5,98.5 Z"/></g>
<g><path style="opacity:0.314" fill="#cdcdcd" d="M 72.5,105.5 C 74.288,105.215 75.9547,105.548 77.5,106.5C 77.3764,107.107 77.0431,107.44 76.5,107.5C 75.1667,106.833 73.8333,106.167 72.5,105.5 Z"/></g>
<g><path style="opacity:0.718" fill="#d3d3d3" d="M 81.5,106.5 C 80.5084,106.328 79.8417,106.662 79.5,107.5C 78.1153,106.698 78.282,106.031 80,105.5C 80.7648,105.57 81.2648,105.903 81.5,106.5 Z"/></g>
<g><path style="opacity:0.486" fill="#cbcbcb" d="M 110.5,114.5 C 110.5,112.167 110.5,109.833 110.5,107.5C 107.833,107.5 105.167,107.5 102.5,107.5C 104.704,106.495 107.704,106.162 111.5,106.5C 111.806,109.385 111.473,112.052 110.5,114.5 Z"/></g>
<g><path style="opacity:0.375" fill="#c7c7c7" d="M 94.5,120.5 C 96.1667,120.5 97.8333,120.5 99.5,120.5C 99.5,116.167 99.5,111.833 99.5,107.5C 96.9407,107.198 94.6074,107.532 92.5,108.5C 91.9569,108.44 91.6236,108.107 91.5,107.5C 94.4281,106.516 97.4281,106.183 100.5,106.5C 100.5,111.5 100.5,116.5 100.5,121.5C 98.2646,121.795 96.2646,121.461 94.5,120.5 Z"/></g>
<g><path style="opacity:0.996" fill="#dbdbdb" d="M 54.5,111.5 C 54.5,112.833 54.5,114.167 54.5,115.5C 52.5853,115.784 50.9187,115.451 49.5,114.5C 50.8333,114.5 52.1667,114.5 53.5,114.5C 53.2627,113.209 53.596,112.209 54.5,111.5 Z"/></g>
<g><path style="opacity:0.384" fill="#c7c7c7" d="M 76.5,117.5 C 77.209,118.404 78.209,118.737 79.5,118.5C 78.2918,119.782 76.9584,119.782 75.5,118.5C 75.6236,117.893 75.9569,117.56 76.5,117.5 Z"/></g>
<g><path style="opacity:0.431" fill="#cacaca" d="M 56.5,119.5 C 58.337,119.639 58.6704,120.306 57.5,121.5C 56.7025,121.043 56.3691,120.376 56.5,119.5 Z"/></g>
<g><path style="opacity:0.498" fill="#c3c3c3" d="M 130.5,116.5 C 130.077,118.781 130.744,120.448 132.5,121.5C 131.791,122.404 130.791,122.737 129.5,122.5C 129.205,120.265 129.539,118.265 130.5,116.5 Z"/></g>
<g><path style="opacity:0.171" fill="#d7d7d7" d="M 127.5,118.5 C 128.434,119.568 128.768,120.901 128.5,122.5C 125.753,122.813 123.086,122.48 120.5,121.5C 120.624,120.893 120.957,120.56 121.5,120.5C 123.265,121.461 125.265,121.795 127.5,121.5C 127.5,120.5 127.5,119.5 127.5,118.5 Z"/></g>
<g><path style="opacity:0.504" fill="#c9c9c9" d="M 103.5,125.5 C 101.379,125.325 99.3792,125.659 97.5,126.5C 97.9704,125.307 98.9704,124.64 100.5,124.5C 101.726,124.52 102.726,124.853 103.5,125.5 Z"/></g>
<g><path style="opacity:0.344" fill="#cccccc" d="M 116.5,125.5 C 119.797,125.329 120.131,125.995 117.5,127.5C 116.702,127.043 116.369,126.376 116.5,125.5 Z"/></g>
<g><path style="opacity:0.498" fill="#c3c3c3" d="M 63.5,137.5 C 63.56,136.957 63.8933,136.624 64.5,136.5C 65.7969,138.973 65.7969,141.307 64.5,143.5C 64.7947,141.265 64.4614,139.265 63.5,137.5 Z"/></g>
</svg>
